<svg style="position: absolute; width: 0; height: 0; overflow: hidden;" version="1.1" xmlns="http://www.w3.org/2000/svg" xmlns:xlink="http://www.w3.org/1999/xlink">
<defs>
<symbol id="icon-small_alpine_line" viewBox="0 0 32 32">
<title>small_alpine_line</title>
<path d="M31.737 24.731c-2.007-1.259-3.432-3.288-3.866-5.662l-0.008-0.052c-0.239-0.933-0.376-2.003-0.376-3.106 0-0.899 0.091-1.776 0.265-2.624l-0.014 0.084c0.043-0.108 0.146-0.183 0.267-0.183 0.158 0 0.286 0.128 0.286 0.286 0 0.016-0.001 0.032-0.004 0.047l0-0.002c-0.149 0.721-0.234 1.549-0.234 2.397 0 1.052 0.131 2.074 0.378 3.049l-0.018-0.086c0.39 2.288 1.713 4.208 3.557 5.387l0.032 0.019z"></path>
<path d="M23.211 21.2c-0 0-0.001 0-0.001 0-0.158 0-0.286-0.128-0.286-0.286 0-0.108 0.060-0.202 0.149-0.251l0.002-0.001 2.057-1.074v-1.383l-3.131-1.92c-0.073-0.044-0.124-0.118-0.137-0.204l-0-0.002-0.149-0.937h-0.766c-0.257-0.033-0.481-0.158-0.639-0.342l-0.001-0.001c-0.357-0.175-0.777-0.277-1.221-0.277-0.223 0-0.441 0.026-0.649 0.075l0.019-0.004h-4.457c-0 0-0.001 0-0.001 0-0.158 0-0.286-0.128-0.286-0.286 0-0.008 0-0.016 0.001-0.024l-0 0.001v-4.571c0-0.158 0.128-0.286 0.286-0.286v0h5.429v-1.714h-7.429v6.571c0 0.158-0.128 0.286-0.286 0.286v0h-10v3.817c0 0.158-0.128 0.286-0.286 0.286s-0.286-0.128-0.286-0.286v0-4.103c0-0.158 0.128-0.286 0.286-0.286v0h10v-6.571c0-0.158 0.128-0.286 0.286-0.286v0h8c0.158 0 0.286 0.128 0.286 0.286v0 2.286c0 0.158-0.128 0.286-0.286 0.286v0h-5.429v4h4.126c0.126 0 1.669-0.24 2.286 0.366 0 0 0.194 0.183 0.263 0.183h0.994c0.001-0 0.002-0 0.004-0 0.142 0 0.259 0.103 0.282 0.238l0 0.002 0.16 1.063 3.166 1.931c0.082 0.050 0.136 0.139 0.137 0.24v1.692c0 0 0 0 0 0.001 0 0.108-0.059 0.201-0.147 0.25l-0.001 0.001-2.217 1.143c-0.032 0.041-0.075 0.072-0.124 0.091l-0.002 0.001z"></path>
<path d="M19.063 14.514c-0.003 0-0.006 0-0.009 0-0.142 0-0.263-0.089-0.31-0.215l-0.001-0.002-0.994-4.309c-0.021-0.039-0.034-0.086-0.034-0.135 0-0.158 0.128-0.286 0.286-0.286s0.286 0.128 0.286 0.286c0 0.003-0 0.007-0 0.010l0-0.001 0.994 4.309c0.005 0.019 0.007 0.041 0.007 0.064 0 0.136-0.095 0.25-0.222 0.279l-0.002 0z"></path>
<path d="M29.474 22.571h-4.046c-0.158 0-0.286-0.128-0.286-0.286v0-5.714c0-0.158 0.128-0.286 0.286-0.286v0h2.286c0.158 0 0.286 0.128 0.286 0.286s-0.128 0.286-0.286 0.286v0h-2v5.143h3.76c0.158 0 0.286 0.128 0.286 0.286s-0.128 0.286-0.286 0.286v0z"></path>
<path d="M19.817 24.857h-16.206c-1.995 0-3.611-1.617-3.611-3.611v0-0.206c0-1.995 1.617-3.611 3.611-3.611v0h16.206c1.995 0 3.611 1.617 3.611 3.611v0 0.206c0 1.995-1.617 3.611-3.611 3.611v0zM3.611 18c-1.679 0-3.040 1.361-3.040 3.040v0 0.206c0 1.679 1.361 3.040 3.040 3.040v0h16.206c1.679 0 3.040-1.361 3.040-3.040v0-0.206c0-1.679-1.361-3.040-3.040-3.040v0z"></path>
</symbol>
<symbol id="icon-small_bike_line" viewBox="0 0 32 32">
<title>small_bike_line</title>
<path d="M5.333 24.91c-2.946 0-5.333-2.388-5.333-5.333s2.388-5.333 5.333-5.333c2.946 0 5.333 2.388 5.333 5.333v0c-0.006 2.943-2.39 5.327-5.333 5.333h-0.001zM5.333 14.805c-2.635 0-4.772 2.136-4.772 4.772s2.136 4.772 4.772 4.772c2.635 0 4.772-2.136 4.772-4.772v0c0-2.635-2.136-4.772-4.772-4.772v0z"></path>
<path d="M26.667 24.91c-2.946 0-5.333-2.388-5.333-5.333s2.388-5.333 5.333-5.333c2.946 0 5.333 2.388 5.333 5.333v0c-0.006 2.943-2.39 5.327-5.333 5.333h-0.001zM26.667 14.805c-2.635 0-4.772 2.136-4.772 4.772s2.136 4.772 4.772 4.772c2.635 0 4.772-2.136 4.772-4.772v0c0-2.635-2.136-4.772-4.772-4.772v0z"></path>
<path d="M15.439 21.541c-1.085 0-1.965-0.88-1.965-1.965s0.88-1.965 1.965-1.965c1.085 0 1.965 0.88 1.965 1.965v0c0 1.085-0.88 1.965-1.965 1.965v0zM15.439 18.173c-0.775 0-1.403 0.628-1.403 1.404s0.628 1.404 1.403 1.404c0.775 0 1.403-0.628 1.403-1.404v0c0-0.775-0.628-1.404-1.403-1.404v0z"></path>
<path d="M26.667 19.857c-0 0-0.001 0-0.001 0-0.114 0-0.213-0.068-0.257-0.167l-0.001-0.002-5.187-12.025-2.549 0.168c-0.155 0-0.281-0.126-0.281-0.281s0.126-0.281 0.281-0.281v0l2.661-0.18c0.007-0.001 0.015-0.001 0.023-0.001 0.115 0 0.213 0.069 0.257 0.168l0.001 0.002 5.333 12.182c0.015 0.033 0.024 0.072 0.024 0.113 0 0.115-0.069 0.214-0.168 0.257l-0.002 0.001z"></path>
<path d="M14.439 18.319c-0 0-0.001 0-0.001 0-0.106 0-0.198-0.058-0.245-0.145l-4.761-9.13c-0.031-0.044-0.049-0.099-0.049-0.159 0-0.155 0.126-0.281 0.281-0.281 0.119 0 0.221 0.074 0.262 0.179l0.001 0.002 4.761 9.117c0.022 0.039 0.034 0.085 0.034 0.135 0 0.155-0.126 0.281-0.281 0.281-0 0-0.001 0-0.001 0h0z"></path>
<path d="M16.674 18.577c-0.074-0.001-0.141-0.031-0.191-0.079l0 0c-0.050-0.051-0.080-0.12-0.080-0.197s0.031-0.146 0.080-0.197l-0 0c6.434-6.973 6.445-7.029 6.613-6.984v0.281l0.202 0.202-6.456 6.883c-0.043 0.047-0.101 0.080-0.167 0.090l-0.002 0z"></path>
<path d="M5.333 19.857v0c-0.136-0.021-0.238-0.137-0.238-0.277 0-0.013 0.001-0.026 0.003-0.038l-0 0.001c0-0.090 0-0.225 5.805-8.107 0.047-0.063 0.119-0.105 0.201-0.112l0.001-0 11.228-1.123c0.155 0 0.281 0.126 0.281 0.281s-0.126 0.281-0.281 0.281v0l-11.105 1.1c-2.246 2.998-5.434 7.455-5.614 7.86-0.050 0.083-0.139 0.137-0.241 0.137-0.014 0-0.027-0.001-0.041-0.003l0.002 0z"></path>
<path d="M5.333 19.857c-0.155 0-0.281-0.126-0.281-0.281s0.126-0.281 0.281-0.281v0l8.421-0.561c0.014-0.003 0.029-0.004 0.045-0.004 0.143 0 0.258 0.116 0.258 0.258 0 0.001-0 0.003-0 0.004v-0c0.001 0.007 0.001 0.015 0.001 0.023 0 0.147-0.114 0.268-0.258 0.28l-0.001 0-8.421 0.561z"></path>
<path d="M16.213 23.877c-0.155 0-0.281-0.126-0.281-0.281s0.126-0.281 0.281-0.281v0h0.584l-1.538-3.301c-0.026-0.042-0.042-0.093-0.042-0.148 0-0.155 0.126-0.281 0.281-0.281 0.123 0 0.228 0.080 0.266 0.191l0.001 0.002 1.707 3.66c0.020 0.038 0.031 0.082 0.031 0.129s-0.012 0.092-0.032 0.131l0.001-0.002c-0.045 0.074-0.123 0.126-0.212 0.135l-0.001 0-0.977 0.090z"></path>
<path d="M11.509 9.191h-3.368c-0.155 0-0.281-0.126-0.281-0.281v0-0.696c0.007-0.072 0.040-0.134 0.090-0.179l0-0c0.051-0.043 0.117-0.070 0.189-0.070 0.012 0 0.025 0.001 0.037 0.002l-0.001-0 3.368 0.371c0.14 0.017 0.247 0.136 0.247 0.279 0 0.001 0 0.001 0 0.002v-0 0.292c0 0.155-0.126 0.281-0.281 0.281v0zM8.421 8.629h0.629l-0.629-0.067z"></path>
</symbol>
<symbol id="icon-small_car_line" viewBox="0 0 32 32">
<title>small_car_line</title>
<path d="M6.204 22.862c-1.361-0-2.464-1.104-2.464-2.465s1.103-2.465 2.465-2.465c1.342 0 2.433 1.072 2.464 2.407l0 0.003c0 0.016 0.001 0.035 0.001 0.055 0 1.361-1.103 2.465-2.465 2.465-0 0-0 0-0.001 0h0zM6.204 18.481c-1.058 0-1.916 0.858-1.916 1.917s0.858 1.917 1.917 1.917 1.917-0.858 1.917-1.917c0-0.019-0-0.038-0.001-0.058l0 0.003c-0.031-1.035-0.877-1.862-1.916-1.862-0 0-0.001 0-0.001 0h0z"></path>
<path d="M23.73 22.862c-1.361-0-2.464-1.104-2.464-2.465s1.103-2.465 2.465-2.465c1.342 0 2.433 1.072 2.464 2.407l0 0.003c0 0.016 0.001 0.035 0.001 0.055 0 1.361-1.103 2.465-2.465 2.465-0 0-0 0-0.001 0h0zM23.73 18.481c-1.058 0-1.916 0.858-1.916 1.917s0.858 1.917 1.917 1.917 1.917-0.858 1.917-1.917c0-0.019-0-0.038-0.001-0.058l0 0.003c-0.031-1.035-0.877-1.862-1.916-1.862-0 0-0.001 0-0.001 0h0z"></path>
<path d="M4.002 21.11c-1.467-0.413-2.743-0.947-3.936-1.613l0.091 0.047c-0.094-0.045-0.158-0.139-0.158-0.248 0-0.017 0.002-0.033 0.004-0.049l-0 0.002c0-0.12 0-2.99 0.12-4.381s2.355-2.519 5.192-3.899l0.723-0.351c3.012-1.479 6.66-1.303 9.146-1.095 1.643 0.175 4.677 1.512 7.109 2.574 1.282 0.559 2.377 1.095 2.979 1.238s1.095 0.307 1.676 0.46c1.514 0.261 2.866 0.786 4.069 1.529l-0.049-0.028c1.030 0.942 0.92 3.286 0.602 4.031s-4.042 1.325-5.619 1.523c-0.010 0.001-0.022 0.002-0.035 0.002-0.14 0-0.256-0.106-0.272-0.242l-0-0.001c-0.001-0.010-0.002-0.022-0.002-0.035 0-0.14 0.106-0.256 0.242-0.272l0.001-0c2.311-0.285 4.951-0.832 5.181-1.205 0.263-0.635 0.329-2.684-0.471-3.418-1.092-0.64-2.365-1.117-3.72-1.359l-0.070-0.010c-0.613-0.153-1.205-0.307-1.709-0.46s-1.742-0.635-3.034-1.172c-2.399-1.095-5.389-2.399-6.945-2.563-2.421-0.252-5.959-0.427-8.851 0.986l-0.723 0.351c-2.454 1.227-4.787 2.322-4.874 3.494s-0.12 3.538-0.12 4.184c0.989 0.566 2.134 1.055 3.337 1.407l0.113 0.028c0.151 0 0.274 0.123 0.274 0.274s-0.123 0.274-0.274 0.274v0z"></path>
<path d="M19.48 15.195h-13.418c-0.097-0.001-0.182-0.053-0.229-0.13l-0.001-0.001-0.854-1.369c-0.024-0.040-0.039-0.089-0.039-0.141 0-0.114 0.070-0.212 0.169-0.253l0.002-0.001c0.197-0.077 4.896-2.005 7.503-2.005s7.405 2.289 7.668 2.388c0.070 0.035 0.122 0.098 0.142 0.173l0 0.002c0.014 0.032 0.023 0.070 0.023 0.11s-0.008 0.077-0.024 0.111l0.001-0.002-0.701 0.986c-0.049 0.079-0.135 0.132-0.234 0.132-0.002 0-0.005-0-0.007-0h0zM6.215 14.647h13.144l0.361-0.602c-1.095-0.493-4.995-2.191-7.098-2.191s-5.926 1.402-7.010 1.829z"></path>
<path d="M12.776 15.195c-0.002 0-0.004 0-0.006 0-0.151 0-0.274-0.123-0.274-0.274 0-0.019 0.002-0.038 0.006-0.057l-0 0.002v-3.286c0-0.151 0.123-0.274 0.274-0.274s0.274 0.123 0.274 0.274v0 3.286c0.004 0.017 0.006 0.035 0.006 0.055 0 0.151-0.123 0.274-0.274 0.274-0.002 0-0.004-0-0.006-0h0z"></path>
<path d="M20.444 18.481h-10.954c-0.151 0-0.274-0.123-0.274-0.274s0.123-0.274 0.274-0.274v0h10.954c0.151 0 0.274 0.123 0.274 0.274s-0.123 0.274-0.274 0.274v0z"></path>
<path d="M21.539 20.672h-13.144c-0.151 0-0.274-0.123-0.274-0.274s0.123-0.274 0.274-0.274v0h13.144c0.151 0 0.274 0.123 0.274 0.274s-0.123 0.274-0.274 0.274v0z"></path>
</symbol>
<symbol id="icon-small_classic_line" viewBox="0 0 32 32">
<title>small_classic_line</title>
<path d="M6.701 23.913c-1.658 0-3.001-1.344-3.001-3.001s1.344-3.001 3.001-3.001c1.658 0 3.001 1.344 3.001 3.001v0c0 1.658-1.344 3.001-3.001 3.001v0zM6.701 18.456c-1.347 0.012-2.434 1.107-2.434 2.456 0 1.356 1.099 2.456 2.456 2.456s2.456-1.099 2.456-2.456v0c0-0 0-0 0-0 0-1.356-1.099-2.456-2.456-2.456-0.008 0-0.015 0-0.023 0h0.001z"></path>
<path d="M27.438 23.913c-1.658 0-3.001-1.344-3.001-3.001s1.344-3.001 3.001-3.001c1.658 0 3.001 1.344 3.001 3.001v0c0 1.658-1.344 3.001-3.001 3.001v0zM27.438 18.456c-1.347 0.012-2.434 1.107-2.434 2.456 0 1.356 1.099 2.456 2.456 2.456s2.456-1.099 2.456-2.456v0c0-0 0-0 0-0 0-1.356-1.099-2.456-2.456-2.456-0.008 0-0.015 0-0.023 0h0.001z"></path>
<path d="M24.71 21.73h-15.28c-0.151 0-0.273-0.122-0.273-0.273s0.122-0.273 0.273-0.273v0h15.28c0.151 0 0.273 0.122 0.273 0.273s-0.122 0.273-0.273 0.273v0z"></path>
<path d="M31.76 21.73h-1.593c-0.151 0-0.273-0.122-0.273-0.273s0.122-0.273 0.273-0.273v0h1.342c0.002-0.058 0.003-0.127 0.003-0.196 0-0.79-0.153-1.544-0.432-2.235l0.014 0.040c-0.477-0.815-1.206-1.438-2.079-1.77l-0.028-0.009c-0.083-0.035-0.144-0.107-0.163-0.195l-0-0.002s0-0.873 0-1.975c0.001-0.009 0.001-0.020 0.001-0.030 0-0.121-0.051-0.23-0.132-0.308l-0-0c-0.253-0.18-0.569-0.287-0.909-0.287-0.037 0-0.074 0.001-0.111 0.004l0.005-0-6.549-0.087c-0.105-0.002-0.195-0.063-0.239-0.151l-0.001-0.002-0.546-1.091-3.012-4.257h-8.633c-2.259 0.011-3.995 1.408-6.068 3.667-1.823 1.997-1.659 6.701-1.593 7.793h2.936c0.151 0 0.273 0.122 0.273 0.273s-0.122 0.273-0.273 0.273v0h-3.198c-0 0-0.001 0-0.001 0-0.143 0-0.26-0.11-0.272-0.25l-0-0.001c-0.055-0.295-0.502-6.014 1.724-8.459s4.016-3.842 6.472-3.842h8.731c0.001 0 0.002 0 0.003 0 0.094 0 0.176 0.047 0.225 0.119l0.001 0.001 3.045 4.366 0.48 0.971 6.418 0.087c0.025-0.001 0.055-0.002 0.085-0.002 0.495 0 0.951 0.165 1.317 0.442l-0.005-0.004c0.182 0.178 0.295 0.427 0.295 0.702 0 0.010-0 0.021-0 0.031l0-0.002c0 0.797 0 1.473 0 1.779 0.975 0.392 1.756 1.096 2.237 1.985l0.011 0.023c0.29 0.705 0.458 1.523 0.458 2.381 0 0.184-0.008 0.366-0.023 0.546l0.002-0.023c-0.013 0.12-0.101 0.216-0.217 0.24l-0.002 0z"></path>
<path d="M18.631 14.112v0h-10.62c-0.386-0.023-0.716-0.244-0.892-0.562l-0.003-0.006c-0.033-0.094-0.052-0.203-0.052-0.316 0-0.268 0.107-0.511 0.282-0.688l-0 0c0.788-0.951 1.764-1.718 2.874-2.248l0.051-0.022h6.221c0.097 0.001 0.181 0.053 0.229 0.13l0.001 0.001 2.096 3.274c0.025 0.040 0.040 0.089 0.040 0.142 0 0.149-0.12 0.271-0.269 0.273h-0zM10.478 10.838c-1.062 0.506-1.957 1.202-2.675 2.051l-0.010 0.012c-0.142 0.196-0.207 0.371-0.175 0.447s0.306 0.196 0.469 0.196h10.041l-1.746-2.729z"></path>
<path d="M1.539 20.639h-0.109c-0.098-0.043-0.165-0.139-0.165-0.251 0-0.040 0.008-0.077 0.024-0.111l-0.001 0.002c1.321-3.121 3.274-4.366 6.156-4.071 1.735 0.302 3.182 1.337 4.034 2.767l0.015 0.027 9.179 0.076c0.502-0.295 1.19-0.611 2.041-1.015 0.677-0.317 1.452-0.677 2.292-1.091 0.773-0.411 1.69-0.653 2.664-0.653 0.528 0 1.039 0.071 1.524 0.204l-0.040-0.009c0.092 0.045 0.155 0.138 0.155 0.246 0 0.151-0.122 0.273-0.273 0.273-0.020 0-0.040-0.002-0.059-0.006l0.002 0c-0.39-0.103-0.837-0.162-1.298-0.162-0.885 0-1.719 0.217-2.453 0.601l0.029-0.014c-0.851 0.426-1.626 0.786-2.314 1.091-0.884 0.415-1.572 0.731-2.063 1.026-0.021 0.005-0.046 0.008-0.071 0.008s-0.050-0.003-0.073-0.009l0.002 0-9.375-0.022c-0 0-0 0-0.001 0-0.103 0-0.192-0.057-0.239-0.14l-0.001-0.001c-0.791-1.377-2.129-2.364-3.709-2.669l-0.034-0.006c-2.652-0.317-4.366 0.84-5.588 3.744-0.043 0.097-0.139 0.164-0.25 0.164-0 0-0.001 0-0.001 0h0z"></path>
</symbol>
<symbol id="icon-small_construction_line" viewBox="0 0 32 32">
<title>small_construction_line</title>
<path d="M2.905 26.829c-1.605 0-2.905-1.301-2.905-2.905s1.301-2.905 2.905-2.905c1.605 0 2.905 1.301 2.905 2.905v0c0 1.605-1.301 2.905-2.905 2.905v0zM2.905 21.546c-1.313 0-2.377 1.064-2.377 2.377s1.064 2.377 2.377 2.377c1.313 0 2.377-1.064 2.377-2.377v0c0-1.313-1.064-2.377-2.377-2.377v0z"></path>
<path d="M16.639 26.829c-1.605 0-2.905-1.301-2.905-2.905s1.301-2.905 2.905-2.905c1.605 0 2.905 1.301 2.905 2.905v0c0 1.605-1.301 2.905-2.905 2.905v0zM16.639 21.546c-1.313 0-2.377 1.064-2.377 2.377s1.064 2.377 2.377 2.377c1.313 0 2.377-1.064 2.377-2.377v0c0-1.313-1.064-2.377-2.377-2.377v0z"></path>
<path d="M20.337 23.659h-1.056c-0.146 0-0.264-0.118-0.264-0.264s0.118-0.264 0.264-0.264v0h0.792v-0.539h-1.373c-0.146 0-0.264-0.118-0.264-0.264s0.118-0.264 0.264-0.264v0 0l1.627 0.063c0.141 0.006 0.254 0.122 0.254 0.264 0 0 0 0 0 0v-0 1.056c-0.024 0.116-0.122 0.204-0.242 0.211l-0.001 0z"></path>
<path d="M14.41 22.603h-0.412l-8.895-0.063c-0.146 0-0.264-0.118-0.264-0.264s0.118-0.264 0.264-0.264v0h0.444l8.864 0.063c0.146 0 0.264 0.118 0.264 0.264s-0.118 0.264-0.264 0.264v0z"></path>
<path d="M27.119 25.371c-0.74-0.007-1.432-0.21-2.026-0.56l0.019 0.010c-0.075-0.047-0.125-0.13-0.125-0.224 0-0.059 0.019-0.113 0.051-0.157l-0 0.001 2.8-3.761 0.634-2.208-1.828-5.832-0.539-0.856-7.395 4.522-1.923 2.662c-0.042 0.057-0.106 0.096-0.178 0.105l-0.001 0-1.627 0.201-2.113 3.169c-0.049 0.072-0.13 0.119-0.222 0.119-0.147 0-0.267-0.119-0.267-0.267 0-0.055 0.017-0.106 0.045-0.149l-0.001 0.001 2.113-3.233c0.043-0.063 0.111-0.107 0.189-0.116l0.001-0 1.627-0.201 1.891-2.62 0.074-0.074 7.733-4.712c0.039-0.024 0.086-0.038 0.136-0.038 0.093 0 0.175 0.048 0.222 0.121l0.001 0.001 0.708 1.141 1.891 5.969c0.007 0.022 0.011 0.048 0.011 0.074s-0.004 0.052-0.011 0.076l0-0.002-0.676 2.324c0.002 0.013 0.003 0.027 0.003 0.042s-0.001 0.030-0.003 0.044l0-0.002-2.641 3.56c0.409 0.207 0.892 0.328 1.404 0.328 0.957 0 1.815-0.424 2.396-1.095l0.003-0.004c2.007-2.113 0-5.282 0-5.282-0.005-0.019-0.008-0.041-0.008-0.063s0.003-0.044 0.008-0.065l-0 0.002-0.761-6.814-1.606-1.521-7.321 1.807-4.849 2.778c-0.033 0.015-0.071 0.023-0.111 0.023s-0.078-0.009-0.113-0.024l0.002 0.001c-0.072-0.025-0.129-0.078-0.158-0.146l-0.001-0.002-3.486-8.726h-6.339v7.131c0 0.146-0.118 0.264-0.264 0.264v0h-0.792v6.867h1.68c0.002-0 0.004-0 0.007-0 0.095 0 0.178 0.050 0.225 0.126l0.001 0.001 1.152 1.986c0.015 0.032 0.023 0.069 0.023 0.109 0 0.146-0.118 0.264-0.264 0.264-0.087 0-0.165-0.043-0.213-0.108l-0-0.001-1.025-1.849h-1.849c-0.146 0-0.264-0.118-0.264-0.264v0-7.395c0-0.146 0.118-0.264 0.264-0.264v0h0.792v-7.131c0-0.146 0.118-0.264 0.264-0.264v0h6.782c0.11 0.001 0.204 0.070 0.242 0.167l0.001 0.002 3.444 8.631 4.617-2.652h0.074l7.49-1.923c0.019-0.005 0.041-0.008 0.063-0.008 0.070 0 0.133 0.027 0.18 0.071l-0-0 1.785 1.648c0.047 0.043 0.078 0.102 0.084 0.168l0 0.001 0.634 6.878c0.285 0.465 2.113 3.624 0 5.906-0.666 0.796-1.657 1.302-2.767 1.31h-0.001z"></path>
<path d="M13.026 14.415h-0.085l-6.603-2.219c-0.103-0.036-0.176-0.13-0.18-0.243v-0l-0.264-5.451c-0-0.003-0-0.007-0-0.011 0-0.146 0.118-0.264 0.264-0.264 0 0 0 0 0 0h4.078c0.002-0 0.005-0 0.007-0 0.112 0 0.207 0.069 0.246 0.167l0.001 0.002 2.789 7.659c0.011 0.028 0.018 0.061 0.018 0.095 0 0.146-0.118 0.264-0.264 0.264-0.003 0-0.005-0-0.008-0h0zM6.687 11.753l5.906 1.976-2.535-6.973h-3.624z"></path>
<path d="M20.421 15.25c-0.146 0-0.264-0.118-0.264-0.264s0.118-0.264 0.264-0.264v0l6.856-0.951c0.011-0.002 0.024-0.003 0.037-0.003 0.147 0 0.267 0.119 0.267 0.267 0 0.134-0.099 0.245-0.228 0.264l-0.001 0-6.856 0.951z"></path>
<path d="M13.998 23.659h-8.452c-0.146 0-0.264-0.118-0.264-0.264s0.118-0.264 0.264-0.264v0h8.452c0.146 0 0.264 0.118 0.264 0.264s-0.118 0.264-0.264 0.264v0z"></path>
</symbol>
<symbol id="icon-small_ffg_line" viewBox="0 0 32 32">
<title>small_ffg_line</title>
<path d="M7.767 28.534c-3.538 0-6.406-2.868-6.406-6.406s2.868-6.406 6.406-6.406c3.538 0 6.406 2.868 6.406 6.406v0c-0.006 3.536-2.871 6.4-6.406 6.406h-0.001zM7.767 16.279c-3.23 0-5.849 2.619-5.849 5.849s2.619 5.849 5.849 5.849c3.23 0 5.849-2.619 5.849-5.849v0c-0.006-3.228-2.621-5.843-5.849-5.849h-0.001z"></path>
<path d="M28.379 28.534c-2 0-3.621-1.621-3.621-3.621s1.621-3.621 3.621-3.621c2 0 3.621 1.621 3.621 3.621v0c0 2-1.621 3.621-3.621 3.621v0zM28.379 21.849c-1.692 0-3.064 1.372-3.064 3.064s1.372 3.064 3.064 3.064c1.692 0 3.064-1.372 3.064-3.064v0c0-1.692-1.372-3.064-3.064-3.064v0z"></path>
<path d="M3.455 14.752h-0.056c-0.126-0.028-0.219-0.139-0.219-0.272 0-0.022 0.003-0.044 0.007-0.064l-0 0.002 2.351-10.729c0.027-0.128 0.139-0.223 0.273-0.223 0.002 0 0.004 0 0.006 0h11.42c0.129 0.001 0.237 0.090 0.267 0.21l0 0.002 1.894 7.799c0.005 0.020 0.008 0.043 0.008 0.067 0 0.155-0.126 0.281-0.281 0.281-0.131 0-0.242-0.090-0.273-0.212l-0-0.002-1.838-7.587h-10.974l-2.306 10.518c-0.031 0.123-0.14 0.212-0.27 0.212-0.003 0-0.006-0-0.009-0h0z"></path>
<path d="M30.050 18.507h-14.618c-0.154 0-0.279-0.125-0.279-0.279s0.125-0.279 0.279-0.279v0h14.339c0-0.546 0.056-1.905 0-3.866-0.040-1.242-1.057-2.234-2.305-2.234-0.055 0-0.11 0.002-0.164 0.006l0.007-0h-8.144c-0.154 0-0.279-0.125-0.279-0.279s0.125-0.279 0.279-0.279v0h8.122c0.040-0.002 0.087-0.003 0.135-0.003 1.57 0 2.848 1.248 2.895 2.806l0 0.004c0.089 2.596 0 4.156 0 4.178-0.026 0.126-0.136 0.22-0.267 0.223h-0z"></path>
<path d="M15.889 24v0c-0.13-0.025-0.227-0.138-0.227-0.274 0-0.017 0.002-0.035 0.005-0.051l-0 0.002s0.691-4.212-1.538-7.153c-1.384-1.674-3.432-2.757-5.735-2.841l-0.014-0c-4.111-0.434-7.008 2.607-7.743 3.454l1.905 1.426c0.080 0.056 0.132 0.147 0.132 0.251 0 0.168-0.136 0.304-0.304 0.304-0.065 0-0.124-0.020-0.174-0.054l0.001 0.001-2.117-1.66c-0.049-0.050-0.080-0.119-0.080-0.195s0.030-0.145 0.080-0.195l-0 0c0.134-0.178 3.342-4.457 8.412-3.9 2.46 0.115 4.625 1.283 6.071 3.060l0.012 0.015c2.373 3.131 1.671 7.398 1.638 7.576-0.020 0.135-0.136 0.238-0.276 0.238-0.017 0-0.033-0.002-0.049-0.004l0.002 0z"></path>
<path d="M16.892 12.936h-2.752l-5.738-1.816c-0.109-0.037-0.186-0.137-0.189-0.256v-0l-0.167-4.88c-0-0.002-0-0.005-0-0.007 0-0.075 0.030-0.143 0.078-0.193l-0 0c0.050-0.054 0.121-0.088 0.2-0.089h6.317c0.001-0 0.002-0 0.004-0 0.122 0 0.226 0.078 0.263 0.187l0.001 0.002 2.228 6.685c0.009 0.027 0.015 0.057 0.015 0.089 0 0.154-0.125 0.279-0.279 0.279-0.001 0-0.002 0-0.004-0h0zM14.263 12.379h2.228l-2.039-6.128h-5.849l0.156 4.39z"></path>
<path d="M23.365 24.156v0l-7.454-0.078c-0.154 0-0.279-0.125-0.279-0.279v0c0-0.156 0.368-0.279 0.524-0.279h-0.245l7.22 0.067c0.212-0.914 1.292-4 6.206-4h0.067l1.76 0.479c0.12 0.033 0.206 0.141 0.206 0.269 0 0.044-0.010 0.086-0.028 0.123l0.001-0.002-0.824 1.794c-0.038 0.112-0.142 0.191-0.264 0.191-0.154 0-0.279-0.125-0.279-0.279 0-0.054 0.015-0.105 0.042-0.148l-0.001 0.001 0.691-1.493-1.437-0.345c-5.192 0-5.649 3.599-5.66 3.755-0.024 0.119-0.123 0.21-0.244 0.223l-0.001 0z"></path>
<path d="M29.493 20.044c-0.154 0-0.279-0.125-0.279-0.279v0-1.538c0-0.154 0.125-0.279 0.279-0.279s0.279 0.125 0.279 0.279v0 1.538c0 0.154-0.125 0.279-0.279 0.279v0z"></path>
</symbol>
<symbol id="icon-small_leichte_nutzfahrzeuge" viewBox="0 0 32 32">
<title>small_leichte_nutzfahrzeuge</title>
<path d="M31.719 22.456h-3.368c-0.155 0-0.281-0.126-0.281-0.281s0.126-0.281 0.281-0.281v0h3.088v-6.479l-5.423-2.504c-0.047-0.023-0.085-0.058-0.112-0.1l-0.001-0.001-4.008-6.074h-21.333v15.158h3.088c0.155 0 0.281 0.126 0.281 0.281s-0.126 0.281-0.281 0.281v0h-3.368c-0.155 0-0.281-0.126-0.281-0.281v0-15.719c0-0.155 0.126-0.281 0.281-0.281v0h21.76c0.001-0 0.002-0 0.003-0 0.096 0 0.181 0.049 0.232 0.123l0.001 0.001 4.053 6.108 5.513 2.571c0.094 0.047 0.157 0.142 0.157 0.252 0 0.002-0 0.004-0 0.006v-0 6.928c0 0.003 0 0.007 0 0.011 0 0.155-0.126 0.281-0.281 0.281-0 0-0 0-0 0h0z"></path>
<path d="M21.614 22.456h-11.228c-0.155 0-0.281-0.126-0.281-0.281s0.126-0.281 0.281-0.281v0h11.228c0.155 0 0.281 0.126 0.281 0.281s-0.126 0.281-0.281 0.281v0z"></path>
<path d="M23.029 14.597h-7.029c-0.155 0-0.281-0.126-0.281-0.281v0-4.491c0-0.155 0.126-0.281 0.281-0.281v0h4.031c0.001-0 0.002-0 0.003-0 0.096 0 0.181 0.049 0.232 0.123l0.001 0.001 2.998 4.491c0.030 0.044 0.048 0.099 0.048 0.157 0 0.155-0.126 0.281-0.281 0.281-0.001 0-0.002 0-0.003-0h0zM16.292 14.035h6.164l-2.571-3.93h-3.604z"></path>
<path d="M18.245 14.597c-0.155 0-0.281-0.126-0.281-0.281v0l-0.067-4.491c0-0 0-0 0-0 0-0.151 0.119-0.274 0.269-0.28l0.001-0c0.155 0 0.281 0.126 0.281 0.281v0l0.067 4.491c0 0.155-0.126 0.281-0.281 0.281v0z"></path>
<path d="M7.017 25.825c-2.015 0-3.649-1.634-3.649-3.649s1.634-3.649 3.649-3.649c2.015 0 3.649 1.634 3.649 3.649v0c0 2.015-1.634 3.649-3.649 3.649v0zM7.017 19.088c-1.705 0-3.088 1.382-3.088 3.088s1.382 3.088 3.088 3.088c1.705 0 3.088-1.382 3.088-3.088v0c0-1.705-1.382-3.088-3.088-3.088v0z"></path>
<path d="M24.982 25.825c-2.015 0-3.649-1.634-3.649-3.649s1.634-3.649 3.649-3.649c2.015 0 3.649 1.634 3.649 3.649v0c0 2.015-1.634 3.649-3.649 3.649v0zM24.982 19.088c-1.705 0-3.088 1.382-3.088 3.088s1.382 3.088 3.088 3.088c1.705 0 3.088-1.382 3.088-3.088v0c0-1.705-1.382-3.088-3.088-3.088v0z"></path>
</symbol>
<symbol id="icon-small_marine_line" viewBox="0 0 32 32">
<title>small_marine_line</title>
<path d="M21.858 20.189v0c-6.626 0-19.286 0-19.701 0-0.010 0.001-0.021 0.002-0.033 0.002-0.133 0-0.242-0.1-0.257-0.229l-0-0.001-0.145-0.892h-1.462c-0 0-0.001 0-0.001 0-0.143 0-0.259-0.116-0.259-0.259 0-0.007 0-0.015 0.001-0.022l-0 0.001v-1.037c0-0.143 0.116-0.259 0.259-0.259v0h1.037l0.518-2.893c0.021-0.124 0.127-0.218 0.256-0.218 0.001 0 0.002 0 0.003 0h29.665c0 0 0.001 0 0.001 0 0.143 0 0.259 0.116 0.259 0.259 0 0.098-0.054 0.183-0.135 0.227l-0.001 0.001-9.881 5.236c-0.032 0.038-0.074 0.067-0.123 0.082l-0.002 0zM7.425 19.639l14.35 0.031 8.938-4.749h-28.4l-0.518 2.893c-0.021 0.124-0.127 0.218-0.256 0.218-0.001 0-0.002 0-0.004-0h-1.016v0.518h1.431c0.001 0 0.001 0 0.002 0 0.132 0 0.241 0.099 0.257 0.227l0 0.001 0.114 0.902c0.695-0.031 2.665-0.041 5.101-0.041z"></path>
<path d="M18.758 14.922c-0.002 0-0.005 0-0.008 0-0.065 0-0.124-0.024-0.169-0.063l0 0-2.779-2.52-8.233 0.798-1.348 1.669c-0.046 0.044-0.109 0.071-0.178 0.071-0.143 0-0.259-0.116-0.259-0.259 0-0.053 0.016-0.103 0.044-0.144l-0.001 0.001 1.431-1.752c0.038-0.048 0.092-0.081 0.154-0.093l0.002-0 8.45-0.819c0.009-0.001 0.020-0.002 0.030-0.002 0.064 0 0.123 0.024 0.167 0.064l-0-0 2.872 2.571c0.056 0.048 0.091 0.118 0.091 0.197 0 0.143-0.116 0.259-0.259 0.259-0.003 0-0.006-0-0.008-0h0z"></path>
<path d="M12.889 14.922h-0.093c-0.098-0.039-0.165-0.132-0.165-0.242 0-0.036 0.007-0.071 0.021-0.102l-0.001 0.002 0.975-2.385c0.044-0.083 0.13-0.138 0.229-0.138 0.143 0 0.259 0.116 0.259 0.259 0 0.027-0.004 0.053-0.012 0.077l0.001-0.002-0.975 2.374c-0.041 0.092-0.132 0.156-0.238 0.156-0 0-0.001 0-0.001 0h0z"></path>
<path d="M8.793 14.922h-0.114c-0.084-0.044-0.14-0.131-0.14-0.23 0-0.041 0.009-0.079 0.026-0.114l-0.001 0.002 0.985-2.032c0.043-0.087 0.131-0.146 0.233-0.146 0.143 0 0.26 0.116 0.26 0.26 0 0.042-0.010 0.081-0.027 0.116l0.001-0.002-0.985 1.98c-0.038 0.097-0.13 0.164-0.238 0.166h-0z"></path>
</symbol>
<symbol id="icon-small_moto_line" viewBox="0 0 32 32">
<title>small_moto_line</title>
<path d="M4.772 24.702c-2.635 0-4.772-2.136-4.772-4.772s2.136-4.772 4.772-4.772c2.635 0 4.772 2.136 4.772 4.772v0c0 2.635-2.136 4.772-4.772 4.772v0zM4.772 15.719c-2.325 0-4.211 1.885-4.211 4.211s1.885 4.211 4.211 4.211c2.325 0 4.211-1.885 4.211-4.211v0c0-2.325-1.885-4.211-4.211-4.211v0z"></path>
<path d="M27.228 24.702c-2.635 0-4.772-2.136-4.772-4.772s2.136-4.772 4.772-4.772c2.635 0 4.772 2.136 4.772 4.772v0c0 2.635-2.136 4.772-4.772 4.772v0zM27.228 15.719c-2.325 0-4.211 1.885-4.211 4.211s1.885 4.211 4.211 4.211c2.325 0 4.211-1.885 4.211-4.211v0c0-2.325-1.885-4.211-4.211-4.211v0z"></path>
<path d="M4.772 20.211c-0.019 0.004-0.040 0.007-0.062 0.007-0.159 0-0.287-0.129-0.287-0.287 0-0.137 0.096-0.251 0.224-0.28l0.002-0 5.985-2.852c0.036-0.018 0.079-0.029 0.123-0.029 0.155 0 0.281 0.126 0.281 0.281 0 0.11-0.064 0.206-0.156 0.252l-0.002 0.001-5.985 2.886z"></path>
<path d="M14.653 21.513c-1.594 0-3.368-0.202-3.526-0.225-0.14-0.017-0.247-0.136-0.247-0.279 0-0.001 0-0.001 0-0.002v0c0.003-0.135 0.005-0.293 0.005-0.453 0-1.005-0.075-1.992-0.221-2.957l0.013 0.108c-0.213-0.865-0.494-1.448-2.437-2.246-1.44-0.599-3.173-1.151-4.96-1.562l-0.228-0.044c-0.124-0.026-0.217-0.13-0.225-0.257l-0-0.001-0.079-1.673-2.493-1.325c-0.086-0.049-0.143-0.14-0.143-0.245 0-0.13 0.088-0.24 0.209-0.271l0.002-0c0.71-0.158 1.527-0.252 2.364-0.258l0.005-0c2.694 0.127 5.232 0.504 7.68 1.112l-0.27-0.057c2.919 0.651 6.232-0.371 7.646-0.797 1.146-0.434 2.473-0.737 3.855-0.85l0.053-0.003c0.739 0.13 1.371 0.516 1.815 1.061l0.004 0.005c0.958-0.188 2.060-0.296 3.188-0.296 0.135 0 0.269 0.002 0.403 0.005l-0.020-0c1.287 0.081 2.488 0.317 3.628 0.691l-0.102-0.029c0.468 0.218 0.786 0.684 0.786 1.225 0 0.008-0 0.015-0 0.023l0-0.001c0 0.010 0.001 0.021 0.001 0.032 0 0.225-0.1 0.426-0.258 0.562l-0.001 0.001c-0.199 0.121-0.439 0.192-0.697 0.192-0.152 0-0.299-0.025-0.436-0.071l0.010 0.003c-0.55-0.123-2.639-0.472-3.065-0.472-0.045-0.001-0.098-0.001-0.152-0.001-1.283 0-2.501 0.278-3.597 0.776l0.055-0.022 4.244 6.815c0.014 0.032 0.022 0.070 0.022 0.109 0 0.155-0.126 0.281-0.281 0.281-0.085 0-0.161-0.038-0.213-0.097l-0-0-4.244-6.759c-1.401 0.96-2.511 2.249-3.232 3.76l-0.025 0.057c-0.966 2.571-1.46 3.694-2.751 4.199-0.525 0.155-1.129 0.245-1.754 0.245-0.118 0-0.235-0.003-0.351-0.009l0.016 0.001zM11.441 20.772c1.325 0.135 4.222 0.348 5.086 0 1.123-0.449 1.538-1.516 2.436-3.874 0.837-1.77 2.107-3.217 3.677-4.243l0.039-0.024c1.209-0.675 2.647-1.087 4.177-1.123l0.011-0c1.238 0.126 2.322 0.296 3.386 0.519l-0.208-0.037c0.505 0.112 0.662 0 0.696 0s0 0 0-0.157c0-0.007 0-0.015 0-0.024 0-0.305-0.171-0.57-0.423-0.704l-0.004-0.002c-0.994-0.307-2.145-0.512-3.335-0.571l-0.034-0.001c-0.106-0.002-0.232-0.004-0.358-0.004-1.145 0-2.263 0.116-3.342 0.337l0.107-0.018c-0.017 0.004-0.038 0.006-0.058 0.006-0.084 0-0.16-0.037-0.211-0.096l-0-0c-0.236-0.281-0.954-0.988-1.505-0.988-1.36 0.154-2.602 0.47-3.77 0.933l0.099-0.034c-1.648 0.626-3.553 0.988-5.544 0.988-0.845 0-1.675-0.065-2.485-0.191l0.090 0.012c-2.132-0.54-4.62-0.913-7.173-1.041l-0.092-0.004c-0.526 0.010-1.032 0.046-1.53 0.108l0.070-0.007 1.909 1.011c0.088 0.049 0.146 0.141 0.146 0.246 0 0 0 0.001 0 0.001v-0l0.067 1.561c1.975 0.432 3.679 0.966 5.317 1.628l-0.219-0.078c1.987 0.865 2.47 1.549 2.762 2.683 0.139 0.828 0.219 1.783 0.219 2.756 0 0.152-0.002 0.304-0.006 0.455l0-0.022z"></path>
<path d="M21.019 9.791c-0.108-0.002-0.201-0.065-0.246-0.156l-0.001-0.002-0.876-1.774h-2.773c-0.155 0-0.281-0.126-0.281-0.281s0.126-0.281 0.281-0.281v0h2.953c0.108 0.002 0.201 0.065 0.246 0.156l0.001 0.002 0.954 1.931c0.017 0.036 0.028 0.077 0.028 0.121 0 0.108-0.061 0.201-0.15 0.248l-0.002 0.001z"></path>
<path d="M13.833 14.574c-1.482 0-6.546-1.662-7.399-2.481-0.502-0.403-0.82-1.016-0.82-1.703 0-0.017 0-0.034 0.001-0.051l-0 0.003c0.015-0.136 0.129-0.24 0.268-0.24 0.016 0 0.033 0.001 0.048 0.004l-0.002-0c0.136 0.021 0.238 0.137 0.238 0.277 0 0.013-0.001 0.026-0.003 0.038l0-0.001c0.020 0.516 0.269 0.97 0.647 1.266l0.004 0.003c0.752 0.73 6.142 2.481 7.13 2.313 1.605-0.286 2.99-1.080 4.015-2.206l0.005-0.006c0.674-1.123 0.55-1.594 0.55-1.594-0.006-0.021-0.009-0.046-0.009-0.071 0-0.128 0.083-0.237 0.198-0.276l0.002-0.001c0.024-0.008 0.053-0.012 0.082-0.012 0.123 0 0.228 0.079 0.266 0.19l0.001 0.002c0 0.067 0.213 0.719-0.606 2.055s-3.301 2.335-4.368 2.515z"></path>
</symbol>
<symbol id="icon-small_swiss_line" viewBox="0 0 32 32">
<title>small_swiss_line</title>
<path d="M31.644 29.877h-31.288c-0.196 0-0.356-0.159-0.356-0.356v0-2.844c-0-0.004-0-0.009-0-0.014 0-0.196 0.159-0.356 0.356-0.356 0 0 0 0 0 0h31.288c0.196 0 0.356 0.159 0.356 0.356v0 2.844c0 0.004 0 0.009 0 0.014 0 0.196-0.159 0.356-0.356 0.356-0 0-0 0-0 0h0zM0.711 29.152h30.577v-2.133h-30.577z"></path>
<path d="M13.156 27.033h-8.533c-0.196 0-0.356-0.159-0.356-0.356v0-15.374c-0-0.003-0-0.006-0-0.009 0-0.096 0.038-0.183 0.1-0.247l-0 0 4.523-4.537c0.061-0.066 0.146-0.108 0.241-0.114l0.001-0h4.025c0.196 0 0.356 0.159 0.356 0.356v0 19.911c0 0.004 0 0.009 0 0.014 0 0.196-0.159 0.356-0.356 0.356-0 0-0 0-0 0h0zM4.978 26.308h7.822v-19.185h-3.513l-4.267 4.267z"></path>
<path d="M16 15.655h-2.844c-0.196 0-0.356-0.159-0.356-0.356v0-7.111c-0-0.004-0-0.009-0-0.014 0-0.196 0.159-0.356 0.356-0.356 0 0 0 0 0 0h2.844c0.196 0 0.356 0.159 0.356 0.356v0 7.111c0 0.004 0 0.009 0 0.014 0 0.196-0.159 0.356-0.356 0.356-0 0-0 0-0 0h0zM13.511 14.93h2.133v-6.386h-2.133z"></path>
<path d="M18.844 14.233h-2.844c-0.196 0-0.356-0.159-0.356-0.356v0-4.267c-0-0.004-0-0.009-0-0.014 0-0.196 0.159-0.356 0.356-0.356 0 0 0 0 0 0h2.844c0.196 0 0.356 0.159 0.356 0.356v0 4.267c0 0.004 0 0.009 0 0.014 0 0.196-0.159 0.356-0.356 0.356-0 0-0 0-0 0h0zM16.356 13.508h2.133v-3.541h-2.133z"></path>
<path d="M22.755 21.344c-0.196 0-0.356-0.159-0.356-0.356v0-5.689c0-0.196 0.159-0.356 0.356-0.356s0.356 0.159 0.356 0.356v0 5.689c0 0.196-0.159 0.356-0.356 0.356v0z"></path>
<path d="M25.955 15.655h-7.111c-0.196 0-0.356-0.159-0.356-0.356v0-9.116c0.004-1.153 0.434-2.204 1.142-3.006l-0.004 0.005c0.669-0.654 1.584-1.057 2.594-1.057 0.063 0 0.126 0.002 0.188 0.005l-0.009-0c0.070-0.005 0.153-0.007 0.236-0.007 1.015 0 1.936 0.404 2.61 1.061l-0.001-0.001c0.695 0.779 1.12 1.812 1.124 2.943v9.174c0 0.001 0 0.003 0 0.005 0 0.196-0.159 0.356-0.356 0.356-0.020 0-0.040-0.002-0.059-0.005l0.002 0zM19.2 15.3v0zM19.2 14.944h6.4v-8.832c-0.008-0.939-0.357-1.794-0.928-2.451l0.004 0.005c-0.548-0.514-1.287-0.83-2.1-0.83-0.062 0-0.123 0.002-0.184 0.005l0.008-0c-0.047-0.003-0.103-0.004-0.159-0.004-0.816 0-1.557 0.321-2.104 0.844l0.001-0.001c-0.577 0.668-0.931 1.544-0.939 2.502v0.002z"></path>
<path d="M18.844 11.389c-0.196 0-0.356-0.159-0.356-0.356s0.159-0.356 0.356-0.356v0h7.111c0.196 0 0.356 0.159 0.356 0.356s-0.159 0.356-0.356 0.356v0z"></path>
</symbol>
<symbol id="icon-small_truck_line" viewBox="0 0 32 32">
<title>small_truck_line</title>
<path d="M6.533 28.034c-1.7 0-3.078-1.378-3.078-3.078s1.378-3.078 3.078-3.078c1.7 0 3.078 1.378 3.078 3.078v0c0 1.7-1.378 3.078-3.078 3.078v0zM6.533 22.437c-1.391 0-2.519 1.128-2.519 2.519s1.128 2.519 2.519 2.519c1.391 0 2.519-1.128 2.519-2.519v0c0-1.391-1.128-2.519-2.519-2.519v0z"></path>
<path d="M25.563 28.034c-1.7 0-3.078-1.378-3.078-3.078s1.378-3.078 3.078-3.078c1.7 0 3.078 1.378 3.078 3.078v0c0 1.7-1.378 3.078-3.078 3.078v0zM25.563 22.437c-1.391 0-2.519 1.128-2.519 2.519s1.128 2.519 2.519 2.519c1.391 0 2.519-1.128 2.519-2.519v0c0-1.391-1.128-2.519-2.519-2.519v0z"></path>
<path d="M19.407 21.317c-0.155 0-0.28-0.125-0.28-0.28v0-16.511h-17.351v16.232h8.675c0.155 0 0.28 0.125 0.28 0.28s-0.125 0.28-0.28 0.28v0h-8.955c-0.155 0-0.28-0.125-0.28-0.28v0-16.791c0-0.155 0.125-0.28 0.28-0.28v0h17.911c0.155 0 0.28 0.125 0.28 0.28v0 16.791c0 0.155-0.125 0.28-0.28 0.28v0z"></path>
<path d="M1.126 23.556c-0 0-0 0-0.001 0-0.315 0-0.601-0.119-0.818-0.314l0.001 0.001c-0.192-0.218-0.309-0.505-0.309-0.82 0-0.046 0.003-0.092 0.007-0.137l-0.001 0.006c-0.001-0.021-0.002-0.045-0.002-0.069 0-0.407 0.158-0.776 0.416-1.051l-0.001 0.001c0.255-0.249 0.601-0.405 0.983-0.414l0.002-0c0.155 0 0.28 0.125 0.28 0.28s-0.125 0.28-0.28 0.28v0 0c-0.134 0-0.84 0.056-0.84 0.985-0.001 0.017-0.002 0.037-0.002 0.057 0 0.185 0.069 0.353 0.182 0.481l-0.001-0.001c0.12 0.098 0.275 0.157 0.444 0.157 0.005 0 0.011-0 0.016-0l-0.001 0h2.91c0.155 0 0.28 0.125 0.28 0.28s-0.125 0.28-0.28 0.28v0h-2.989z"></path>
<path d="M30.601 21.317c-0.155 0-0.28-0.125-0.28-0.28v0-6.84l-4.567-6.314h-6.347c-0.155 0-0.28-0.125-0.28-0.28s0.125-0.28 0.28-0.28v0h6.526c0.091 0 0.172 0.044 0.223 0.111l0.001 0.001 4.668 6.504c0.008 0.025 0.013 0.054 0.013 0.084s-0.005 0.059-0.013 0.086l0.001-0.002v6.929c0 0.002 0 0.004 0 0.006 0 0.135-0.095 0.247-0.222 0.274l-0.002 0z"></path>
<path d="M27.668 13.481h-6.022c-0.155 0-0.28-0.125-0.28-0.28v0-3.358c0-0.155 0.125-0.28 0.28-0.28v0h3.47c0.091 0 0.172 0.044 0.223 0.111l0.001 0.001 2.541 3.358c0.035 0.046 0.056 0.105 0.056 0.168 0 0.155-0.125 0.28-0.28 0.28v0zM21.925 12.922h5.172l-2.116-2.799h-3.056z"></path>
<path d="M26.123 21.317h-16.791c-0.155 0-0.28-0.125-0.28-0.28s0.125-0.28 0.28-0.28v0h16.791c0.155 0 0.28 0.125 0.28 0.28s-0.125 0.28-0.28 0.28v0z"></path>
<path d="M23.19 23.556h-13.858c-0.155 0-0.28-0.125-0.28-0.28s0.125-0.28 0.28-0.28v0h13.858c0.155 0 0.28 0.125 0.28 0.28s-0.125 0.28-0.28 0.28v0z"></path>
<path d="M22.765 23.556h-13.802c-0.155 0-0.28-0.125-0.28-0.28s0.125-0.28 0.28-0.28v0h0.403z"></path>
<path d="M31.72 23.556h-3.806c-0.155 0-0.28-0.125-0.28-0.28s0.125-0.28 0.28-0.28v0h3.526v-1.679h-5.317c-0.155 0-0.28-0.125-0.28-0.28s0.125-0.28 0.28-0.28v0h5.597c0.155 0 0.28 0.125 0.28 0.28v0 2.239c0 0.155-0.125 0.28-0.28 0.28v0z"></path>
</symbol>
<symbol id="icon-medium_alpine_line" viewBox="0 0 32 32">
<title>medium_alpine_line</title>
<path d="M31.8 24.402c-0.82-0.525-2.948-1.893-3.791-5.578-0.233-0.912-0.366-1.959-0.366-3.037 0-0.887 0.090-1.752 0.262-2.588l-0.014 0.083c0.031-0.077 0.105-0.13 0.192-0.13 0.114 0 0.206 0.092 0.206 0.206 0 0.013-0.001 0.025-0.003 0.037l0-0.001c-0.146 0.713-0.23 1.533-0.23 2.372 0 1.042 0.129 2.053 0.372 3.020l-0.018-0.085c0.814 3.538 2.83 4.823 3.591 5.307l-0.088 0.189z"></path>
<path d="M23.373 20.9c-0.113-0.001-0.205-0.093-0.205-0.206 0-0.079 0.044-0.148 0.109-0.182l0.001-0.001 2.076-1.085v-1.144l-3.119-2.005c-0.049-0.031-0.084-0.081-0.094-0.14l-0-0.001-0.153-1.055h-0.814c-0.24-0.034-0.447-0.157-0.588-0.334l-0.001-0.002c-0.371-0.383-1.474-0.301-1.869-0.236h-4.357c-0.114 0-0.206-0.092-0.206-0.206v0-4.717c-0-0.004-0-0.008-0-0.012 0-0.114 0.092-0.206 0.206-0.206 0 0 0 0 0 0h5.1v-1.356h-7.205l-0.047 6.28c0 0.114-0.092 0.206-0.206 0.206v0h-10.407v3.332c0 0.114-0.092 0.206-0.206 0.206s-0.206-0.092-0.206-0.206v0-3.538c0-0.114 0.092-0.206 0.206-0.206h10.407l0.047-6.28c0-0.114 0.092-0.206 0.206-0.206v0h7.618c0.114 0 0.206 0.092 0.206 0.206v0 1.769c0 0.114-0.092 0.206-0.206 0.206v0h-5.1v4.304h4.128c0.136 0 1.61-0.242 2.199 0.354 0.065 0.065 0.206 0.206 0.307 0.212 0.59 0 0.979 0 0.979 0s0.001-0 0.002-0c0.104 0 0.189 0.076 0.204 0.176l0 0.001 0.165 1.138 3.137 2.011c0.056 0.037 0.093 0.1 0.094 0.171v1.38c-0 0.079-0.045 0.148-0.111 0.182l-0.001 0.001-2.199 1.168c-0.027 0.014-0.060 0.023-0.094 0.024h-0z"></path>
<path d="M19.222 14.42c-0.097-0-0.178-0.067-0.2-0.158l-0-0.001-1.020-4.381c-0.002-0.010-0.003-0.022-0.003-0.034 0-0.114 0.092-0.206 0.206-0.206 0.093 0 0.171 0.061 0.197 0.145l0 0.001 1.020 4.375c0.003 0.014 0.005 0.030 0.005 0.047 0 0.097-0.067 0.178-0.157 0.2l-0.001 0z"></path>
<path d="M29.099 21.572h-3.538c-0.114 0-0.206-0.092-0.206-0.206v0-5.307c0-0.114 0.092-0.206 0.206-0.206h2.359c0.114 0 0.206 0.092 0.206 0.206s-0.092 0.206-0.206 0.206h-2.152v4.894h3.332c0.114 0 0.206 0.092 0.206 0.206s-0.092 0.206-0.206 0.206v0z"></path>
<path d="M4.629 21.572c-0.602 0-1.091-0.488-1.091-1.091s0.488-1.091 1.091-1.091c0.602 0 1.091 0.488 1.091 1.091v0c0 0.602-0.488 1.091-1.091 1.091v0zM4.629 19.803c-0.375 0-0.678 0.304-0.678 0.678s0.304 0.678 0.678 0.678c0.375 0 0.678-0.304 0.678-0.678v0c0-0.375-0.304-0.678-0.678-0.678v0z"></path>
<path d="M7.577 21.572c-0.602 0-1.091-0.488-1.091-1.091s0.488-1.091 1.091-1.091c0.602 0 1.091 0.488 1.091 1.091v0c0 0.602-0.488 1.091-1.091 1.091v0zM7.577 19.803c-0.375 0-0.678 0.304-0.678 0.678s0.304 0.678 0.678 0.678c0.375 0 0.678-0.304 0.678-0.678v0c0-0.375-0.304-0.678-0.678-0.678v0z"></path>
<path d="M10.525 21.572c-0.602 0-1.091-0.488-1.091-1.091s0.488-1.091 1.091-1.091c0.602 0 1.091 0.488 1.091 1.091v0c0 0.602-0.488 1.091-1.091 1.091v0zM10.525 19.803c-0.374 0-0.678 0.304-0.678 0.678s0.304 0.678 0.678 0.678c0.374 0 0.678-0.304 0.678-0.678v0c0-0.375-0.304-0.678-0.678-0.678v0z"></path>
<path d="M13.473 21.572c-0.602 0-1.091-0.488-1.091-1.091s0.488-1.091 1.091-1.091c0.602 0 1.091 0.488 1.091 1.091v0c0 0.602-0.488 1.091-1.091 1.091v0zM13.473 19.803c-0.374 0-0.678 0.304-0.678 0.678s0.304 0.678 0.678 0.678c0.374 0 0.678-0.304 0.678-0.678v0c0-0.375-0.304-0.678-0.678-0.678v0z"></path>
<path d="M16.422 21.572c-0.602 0-1.091-0.488-1.091-1.091s0.488-1.091 1.091-1.091c0.602 0 1.091 0.488 1.091 1.091v0c0 0.602-0.488 1.091-1.091 1.091v0zM16.422 19.803c-0.375 0-0.678 0.304-0.678 0.678s0.304 0.678 0.678 0.678c0.375 0 0.678-0.304 0.678-0.678v0c0-0.375-0.304-0.678-0.678-0.678v0z"></path>
<path d="M19.37 21.572c-0.602 0-1.091-0.488-1.091-1.091s0.488-1.091 1.091-1.091c0.602 0 1.091 0.488 1.091 1.091v0c0 0.602-0.488 1.091-1.091 1.091v0zM19.37 19.803c-0.375 0-0.678 0.304-0.678 0.678s0.304 0.678 0.678 0.678c0.375 0 0.678-0.304 0.678-0.678v0c0-0.375-0.304-0.678-0.678-0.678v0z"></path>
<path d="M19.959 23.931h-16.51c-1.905 0-3.449-1.544-3.449-3.449s1.544-3.449 3.449-3.449v0h16.51c1.905 0 3.449 1.544 3.449 3.449s-1.544 3.449-3.449 3.449v0zM3.449 17.445c-1.677 0-3.037 1.36-3.037 3.037s1.36 3.037 3.037 3.037v0h16.51c1.677 0 3.037-1.36 3.037-3.037s-1.36-3.037-3.037-3.037v0z"></path>
</symbol>
<symbol id="icon-medium_bike_line" viewBox="0 0 32 32">
<title>medium_bike_line</title>
<path d="M5.274 24.655c-2.913 0-5.274-2.361-5.274-5.274s2.361-5.274 5.274-5.274c2.913 0 5.274 2.361 5.274 5.274v0c-0.003 2.911-2.363 5.27-5.273 5.274h-0zM5.274 14.525c-2.682 0-4.857 2.174-4.857 4.857s2.174 4.857 4.857 4.857c2.682 0 4.857-2.174 4.857-4.857v0c-0.003-2.681-2.176-4.853-4.856-4.857h-0z"></path>
<path d="M26.726 24.655c-2.913 0-5.274-2.361-5.274-5.274s2.361-5.274 5.274-5.274c2.913 0 5.274 2.361 5.274 5.274v0c-0.003 2.911-2.363 5.27-5.273 5.274h-0zM26.726 14.525c-2.682 0-4.857 2.174-4.857 4.857s2.174 4.857 4.857 4.857c2.682 0 4.857-2.174 4.857-4.857v0c-0.003-2.681-2.176-4.853-4.856-4.857h-0z"></path>
<path d="M15.106 21.676c-1.103 0-1.996-0.894-1.996-1.996s0.894-1.996 1.996-1.996c1.102 0 1.996 0.894 1.996 1.996v0c0 1.102-0.894 1.996-1.996 1.996v0zM15.106 18.101c-0.872 0-1.579 0.707-1.579 1.579s0.707 1.579 1.579 1.579c0.872 0 1.579-0.707 1.579-1.579v0c0-0.872-0.707-1.579-1.579-1.579v0z"></path>
<path d="M26.458 19.781c-0.085-0-0.158-0.051-0.19-0.124l-0.001-0.001-5.125-11.882c-0.596 0.042-2.384 0.161-2.562 0.161-0.115 0-0.209-0.093-0.209-0.209s0.093-0.209 0.209-0.209v0c0.119 0 1.669-0.101 2.682-0.173 0.084 0.002 0.157 0.052 0.19 0.124l0.001 0.001 5.184 12.019c0.011 0.024 0.017 0.053 0.017 0.083 0 0.085-0.051 0.158-0.123 0.19l-0.001 0.001c-0.021 0.010-0.045 0.016-0.071 0.018l-0.001 0z"></path>
<path d="M14.421 18.255c-0.080-0-0.149-0.046-0.184-0.112l-0.001-0.001-4.702-8.98c-0.010-0.024-0.016-0.051-0.016-0.080 0-0.115 0.093-0.209 0.209-0.209 0.074 0 0.14 0.039 0.177 0.097l0.001 0.001 4.702 8.98c0.014 0.028 0.023 0.060 0.023 0.095 0 0.080-0.045 0.149-0.111 0.184l-0.001 0.001c-0.028 0.015-0.060 0.023-0.095 0.024h-0z"></path>
<path d="M16.626 18.512c-0.001 0-0.002 0-0.003 0-0.115 0-0.209-0.093-0.209-0.209 0-0.055 0.022-0.106 0.057-0.143l-0 0c6.328-6.853 6.334-6.865 6.46-6.853l-0.072 0.411 0.042-0.203 0.149 0.149c-0.107 0.113-4.171 4.487-6.269 6.781-0.038 0.040-0.092 0.066-0.152 0.066-0.001 0-0.002 0-0.003-0h0z"></path>
<path d="M5.453 19.781h-0.030c-0.103-0.014-0.181-0.101-0.181-0.207 0-0.011 0.001-0.022 0.003-0.033l-0 0.001c0-0.066 0-0.197 5.703-7.955 0.037-0.042 0.089-0.069 0.149-0.072l0-0 11.084-1.073c0.006-0.001 0.014-0.001 0.021-0.001 0.116 0 0.21 0.094 0.21 0.21 0 0.108-0.082 0.198-0.188 0.209l-0.001 0-10.994 1.049c-2.175 2.98-5.399 7.407-5.584 7.747-0.033 0.074-0.106 0.125-0.191 0.125h-0z"></path>
<path d="M5.453 19.781c-0.115 0-0.209-0.093-0.209-0.209s0.093-0.209 0.209-0.209v0l8.253-0.554c0.115 0 0.209 0.093 0.209 0.209s-0.093 0.209-0.209 0.209v0l-8.295 0.554z"></path>
<path d="M16.173 23.738c-0.115 0-0.209-0.093-0.209-0.209s0.093-0.209 0.209-0.209v0l0.667-0.060-1.549-3.337c-0.006-0.018-0.009-0.039-0.009-0.061 0-0.115 0.093-0.209 0.209-0.209 0.074 0 0.138 0.038 0.175 0.096l0.001 0.001 1.674 3.611c0.013 0.026 0.020 0.057 0.020 0.090 0 0.11-0.085 0.2-0.192 0.208l-0.001 0-0.965 0.089z"></path>
<path d="M11.531 9.162h-3.575c-0.115 0-0.209-0.093-0.209-0.209v0-0.65c0.001-0.062 0.028-0.117 0.071-0.155l0-0c0.036-0.034 0.085-0.055 0.139-0.055 0.008 0 0.016 0 0.023 0.001l-0.001-0 3.575 0.364c0.104 0.012 0.185 0.1 0.185 0.207 0 0 0 0.001 0 0.001v-0 0.286c0 0.115-0.093 0.209-0.209 0.209v0zM8.164 8.745h2.098l-2.098-0.209z"></path>
</symbol>
<symbol id="icon-medium_car_line" viewBox="0 0 32 32">
<title>medium_car_line</title>
<path d="M23.717 21.858c-0.77 0-1.393-0.624-1.393-1.393s0.624-1.393 1.393-1.393c0.77 0 1.393 0.624 1.393 1.393v0c0 0.77-0.624 1.393-1.393 1.393v0zM23.717 19.486c-0.54 0-0.978 0.438-0.978 0.978s0.438 0.978 0.978 0.978c0.54 0 0.978-0.438 0.978-0.978v0c0-0.54-0.438-0.978-0.978-0.978v0z"></path>
<path d="M5.929 21.858c-0.77 0-1.393-0.624-1.393-1.393s0.624-1.393 1.393-1.393c0.77 0 1.393 0.624 1.393 1.393v0c0 0.77-0.624 1.393-1.393 1.393v0zM5.929 19.486c-0.54 0-0.978 0.438-0.978 0.978s0.438 0.978 0.978 0.978c0.54 0 0.978-0.438 0.978-0.978v0c0-0.54-0.438-0.978-0.978-0.978v0z"></path>
<path d="M5.929 22.747c-1.261 0-2.283-1.022-2.283-2.283s1.022-2.283 2.283-2.283c1.261 0 2.283 1.022 2.283 2.283v0c0 1.261-1.022 2.283-2.283 2.283v0zM5.929 18.597c-1.032 0-1.868 0.836-1.868 1.868s0.836 1.868 1.868 1.868c1.032 0 1.868-0.836 1.868-1.868v0c0-1.032-0.836-1.868-1.868-1.868v0z"></path>
<path d="M23.717 22.747c-1.261 0-2.283-1.022-2.283-2.283s1.022-2.283 2.283-2.283c1.261 0 2.283 1.022 2.283 2.283v0c0 1.261-1.022 2.283-2.283 2.283v0zM23.717 18.597c-1.032 0-1.868 0.836-1.868 1.868s0.836 1.868 1.868 1.868c1.032 0 1.868-0.836 1.868-1.868v0c0-1.032-0.836-1.868-1.868-1.868v0z"></path>
<path d="M3.813 21.105c-0.723 0-3.397-1.364-3.7-1.512-0.068-0.035-0.113-0.105-0.113-0.185 0-0.004 0-0.008 0-0.011l-0 0.001c0-0.030 0-3.006 0.124-4.417s2.342-2.502 5.176-3.895l0.717-0.35c3.006-1.482 6.658-1.31 9.143-1.044 1.642 0.172 4.678 1.512 7.115 2.585 1.287 0.593 2.372 1.055 3.006 1.239 0.498 0.154 1.079 0.302 1.696 0.462 1.631 0.421 3.32 0.872 4.008 1.464 1.014 0.931 0.901 3.22 0.593 3.978s-4.364 1.358-5.597 1.518c-0.008 0.001-0.017 0.002-0.026 0.002-0.105 0-0.191-0.078-0.206-0.178l-0-0.001c-0.001-0.008-0.002-0.017-0.002-0.026 0-0.105 0.078-0.191 0.178-0.206l0.001-0c2.401-0.302 5.093-0.86 5.253-1.245 0.279-0.658 0.332-2.763-0.486-3.51-0.593-0.563-2.318-1.002-3.824-1.387-0.593-0.16-1.186-0.308-1.714-0.468-0.634-0.196-1.779-0.688-3.048-1.257-2.413-1.061-5.413-2.372-6.996-2.55-2.431-0.255-6.006-0.433-8.894 1.002l-0.717 0.35c-2.603 1.275-4.856 2.372-4.945 3.557s-0.119 3.676-0.119 4.257c1.127 0.593 2.965 1.411 3.392 1.411v0c0.115 0 0.208 0.093 0.208 0.208s-0.093 0.208-0.208 0.208v0z"></path>
<path d="M19.495 15.039h-13.477c-0.001 0-0.002 0-0.004 0-0.073 0-0.137-0.037-0.174-0.094l-0-0.001-0.86-1.381c-0.020-0.031-0.032-0.070-0.032-0.111 0-0.086 0.052-0.159 0.126-0.191l0.001-0.001c0.202-0.083 4.909-2.010 7.506-2.010s7.417 2.295 7.619 2.413c0.071 0.034 0.12 0.105 0.12 0.188 0 0.040-0.011 0.078-0.031 0.109l0.001-0.001-0.593 0.996c-0.038 0.052-0.099 0.086-0.168 0.086-0.012 0-0.023-0.001-0.035-0.003l0.001 0zM6.131 14.624h13.252l0.433-0.7c-0.972-0.445-5.052-2.253-7.228-2.253s-6.131 1.5-7.115 1.885z"></path>
<path d="M12.718 15.039c-0 0-0.001 0-0.001 0-0.108 0-0.197-0.083-0.207-0.189l-0-0.001v-3.392c0-0.115 0.093-0.208 0.208-0.208s0.208 0.093 0.208 0.208v0 3.392c-0.009 0.107-0.098 0.19-0.207 0.19-0 0-0.001 0-0.001 0h0z"></path>
<path d="M20.426 18.597h-11.265c-0.115 0-0.208-0.093-0.208-0.208s0.093-0.208 0.208-0.208h11.265c0.115 0 0.208 0.093 0.208 0.208s-0.093 0.208-0.208 0.208v0z"></path>
<path d="M21.612 20.969h-13.637c-0.115 0-0.208-0.093-0.208-0.208s0.093-0.208 0.208-0.208h13.637c0.115 0 0.208 0.093 0.208 0.208s-0.093 0.208-0.208 0.208v0z"></path>
</symbol>
<symbol id="icon-medium_classic_line" viewBox="0 0 32 32">
<title>medium_classic_line</title>
<path d="M6.812 23.656c-1.585 0-2.871-1.285-2.871-2.871s1.285-2.871 2.871-2.871c1.581 0 2.864 1.278 2.871 2.858v0.001c0 0.002 0 0.004 0 0.006 0 1.587-1.284 2.873-2.87 2.877h-0zM6.812 18.329c-1.357 0-2.456 1.1-2.456 2.456s1.1 2.456 2.456 2.456c1.357 0 2.456-1.1 2.456-2.456 0-0.004 0-0.008-0-0.012v0.001c-0.010-1.35-1.105-2.441-2.456-2.444h-0z"></path>
<path d="M6.812 22.176c-0.768-0-1.391-0.623-1.391-1.391s0.623-1.391 1.391-1.391c0.764 0 1.384 0.616 1.391 1.378v0.001c0 0.003 0 0.008 0 0.012 0 0.768-0.623 1.391-1.391 1.391 0 0-0 0-0 0v0zM6.812 19.809c-0.539 0-0.976 0.437-0.976 0.977s0.437 0.977 0.977 0.977 0.977-0.437 0.977-0.977c0-0.004-0-0.008-0-0.012v0.001c-0.007-0.534-0.441-0.965-0.976-0.965-0 0-0 0-0 0v0z"></path>
<path d="M27.528 22.176h-0.089c-0.731-0.046-1.307-0.65-1.307-1.388 0-0.415 0.182-0.788 0.471-1.043l0.002-0.001c0.244-0.215 0.567-0.346 0.92-0.346 0.030 0 0.060 0.001 0.090 0.003l-0.004-0c0.75 0.023 1.35 0.637 1.35 1.391 0 0.769-0.623 1.392-1.392 1.392-0.015 0-0.029-0-0.044-0.001l0.002 0zM27.528 19.809c-0.009-0-0.019-0-0.030-0-0.54 0-0.977 0.437-0.977 0.977 0 0.529 0.421 0.96 0.946 0.977l0.002 0c0.017 0.001 0.036 0.002 0.056 0.002 0.249 0 0.476-0.093 0.649-0.245l-0.001 0.001c0.188-0.166 0.31-0.402 0.325-0.666l0-0.003c0.001-0.018 0.002-0.040 0.002-0.061 0-0.517-0.402-0.94-0.91-0.974l-0.003-0z"></path>
<path d="M27.528 23.656c-1.585 0-2.871-1.285-2.871-2.871s1.285-2.871 2.871-2.871c1.581 0 2.864 1.278 2.871 2.858v0.001c0 0.002 0 0.004 0 0.006 0 1.587-1.284 2.873-2.87 2.877h-0zM27.528 18.329c-1.357 0-2.456 1.1-2.456 2.456s1.1 2.456 2.456 2.456c1.357 0 2.456-1.1 2.456-2.456 0-0.004 0-0.008-0-0.012v0.001c-0.010-1.35-1.105-2.441-2.456-2.444h-0z"></path>
<path d="M24.865 21.88h-15.389c-0.114 0-0.207-0.093-0.207-0.207s0.093-0.207 0.207-0.207h15.389c0.114 0 0.207 0.093 0.207 0.207s-0.093 0.207-0.207 0.207v0z"></path>
<path d="M31.766 21.88h-1.574c-0.114 0-0.207-0.093-0.207-0.207s0.093-0.207 0.207-0.207h1.385c0.003-0.069 0.004-0.151 0.004-0.233 0-0.805-0.156-1.573-0.439-2.276l0.015 0.041c-0.497-1.184-2.148-1.817-2.166-1.823-0.079-0.029-0.134-0.103-0.136-0.189v-0s0-0.888 0-1.989c0-0.007 0-0.014 0-0.022 0-0.142-0.059-0.271-0.154-0.362l-0-0c-0.282-0.218-0.641-0.35-1.030-0.35-0.014 0-0.029 0-0.043 0.001l0.002-0-6.747-0.077c-0.080-0-0.148-0.045-0.183-0.111l-0.001-0.001-0.545-1.089-2.948-4.226h-8.624c-2.267 0.006-3.995 1.409-6.079 3.67-1.864 2.036-1.663 6.842-1.598 7.854h3.243c0.114 0 0.207 0.093 0.207 0.207s-0.093 0.207-0.207 0.207h-3.439c-0 0-0 0-0.001 0-0.108 0-0.197-0.083-0.206-0.189l-0-0.001c-0.024-0.243-0.503-5.954 1.716-8.357s3.942-3.806 6.357-3.806h8.736c0 0 0.001 0 0.002 0 0.070 0 0.132 0.035 0.17 0.088l0 0.001 3.024 4.344 0.503 1 6.617 0.089c0.031-0.002 0.067-0.003 0.103-0.003 0.477 0 0.917 0.159 1.269 0.427l-0.005-0.004c0.172 0.165 0.279 0.397 0.279 0.654 0 0.012-0 0.023-0.001 0.035l0-0.002c0 0.84 0 1.551 0 1.835 0.432 0.183 1.776 0.835 2.273 2.001 0.287 0.701 0.453 1.515 0.453 2.368 0 0.183-0.008 0.365-0.023 0.544l0.002-0.023c-0.012 0.104-0.1 0.184-0.206 0.184-0.003 0-0.005-0-0.008-0h0z"></path>
<path d="M19.017 14.21v0h-11.512c-0.083 0-0.692-0.065-0.888-0.497-0.029-0.089-0.046-0.191-0.046-0.297 0-0.272 0.11-0.519 0.288-0.698l-0 0c0.851-1.039 1.911-1.875 3.118-2.451l0.055-0.023c0.012-0.003 0.027-0.004 0.041-0.004s0.029 0.002 0.043 0.005l-0.001-0h6.629c0.072 0.001 0.135 0.038 0.171 0.094l0 0.001 2.273 3.551c0.021 0.032 0.033 0.071 0.033 0.112 0 0.114-0.091 0.206-0.205 0.207h-0zM10.139 10.611c-1.174 0.572-2.161 1.356-2.947 2.311l-0.012 0.015c-0.183 0.249-0.255 0.456-0.195 0.592s0.438 0.249 0.527 0.255h11.121l-2.012-3.161z"></path>
<path d="M1.355 20.608h-0.083c-0.076-0.032-0.129-0.106-0.129-0.192 0-0.029 0.006-0.057 0.017-0.082l-0 0.001c1.314-3.107 3.255-4.398 6.126-4.054 2.403 0.284 3.747 2.326 4.048 2.835l9.298 0.077c0.509-0.302 1.184-0.621 2.072-1.030 0.687-0.32 1.462-0.681 2.308-1.107 0.694-0.368 1.516-0.584 2.389-0.584 0.629 0 1.232 0.112 1.79 0.318l-0.036-0.012c0.062 0.036 0.104 0.103 0.104 0.179 0 0.114-0.093 0.207-0.207 0.207-0.020 0-0.039-0.003-0.058-0.008l0.001 0c-0.47-0.166-1.012-0.262-1.576-0.262-0.805 0-1.564 0.195-2.233 0.541l0.027-0.013c-0.852 0.432-1.634 0.793-2.32 1.113-0.888 0.414-1.586 0.74-2.083 1.042-0.016 0.003-0.034 0.004-0.053 0.004s-0.037-0.002-0.055-0.005l0.002 0-9.47-0.077c-0.080-0-0.148-0.045-0.183-0.111l-0.001-0.001s-1.326-2.433-3.794-2.723c-2.705-0.308-4.445 0.864-5.712 3.818-0.033 0.074-0.105 0.124-0.189 0.124h-0z"></path>
</symbol>
<symbol id="icon-medium_construction_line" viewBox="0 0 32 32">
<title>medium_construction_line</title>
<path d="M2.773 26.777c-1.531 0-2.773-1.241-2.773-2.773s1.241-2.773 2.773-2.773c1.531 0 2.773 1.241 2.773 2.773v0c-0.003 1.53-1.243 2.77-2.773 2.773h-0zM2.773 21.632c-1.31 0-2.373 1.062-2.373 2.373s1.062 2.373 2.373 2.373c1.31 0 2.373-1.062 2.373-2.373v0c-0.003-1.309-1.064-2.369-2.372-2.373h-0z"></path>
<path d="M2.773 25.394c-0.742 0-1.344-0.602-1.344-1.344s0.602-1.344 1.344-1.344c0.742 0 1.344 0.602 1.344 1.344v0c0 0.742-0.602 1.344-1.344 1.344v0zM2.773 23.107c-0.521 0-0.943 0.422-0.943 0.943s0.422 0.943 0.943 0.943c0.521 0 0.943-0.422 0.943-0.943v0c0-0.521-0.422-0.943-0.943-0.943v0z"></path>
<path d="M16.495 25.348c-0.742 0-1.344-0.602-1.344-1.344s0.602-1.344 1.344-1.344c0.742 0 1.344 0.602 1.344 1.344v0c0 0.742-0.602 1.344-1.344 1.344v0zM16.495 23.061c-0.521 0-0.943 0.422-0.943 0.943s0.422 0.943 0.943 0.943c0.521 0 0.943-0.422 0.943-0.943v0c0-0.521-0.422-0.943-0.943-0.943v0z"></path>
<path d="M16.495 26.777c-1.531 0-2.773-1.241-2.773-2.773s1.241-2.773 2.773-2.773c1.531 0 2.773 1.241 2.773 2.773v0c-0.003 1.53-1.243 2.77-2.773 2.773h-0zM16.495 21.632c-1.31 0-2.373 1.062-2.373 2.373s1.062 2.373 2.373 2.373c1.31 0 2.373-1.062 2.373-2.373v0c-0.003-1.309-1.064-2.369-2.372-2.373h-0z"></path>
<path d="M20.783 23.919h-1.715c-0.11 0-0.2-0.090-0.2-0.2s0.090-0.2 0.2-0.2h1.515v-0.743h-1.801c-0.11 0-0.2-0.090-0.2-0.2s0.090-0.2 0.2-0.2h2.001c0.11 0 0.2 0.090 0.2 0.2v0 1.143c0 0.11-0.090 0.2-0.2 0.2v0z"></path>
<path d="M14.351 22.775v0l-9.342-0.063c-0.111 0-0.2-0.090-0.2-0.2s0.090-0.2 0.2-0.2v0l9.348 0.063c0.111 0 0.2 0.090 0.2 0.2s-0.090 0.2-0.2 0.2v0z"></path>
<path d="M27.192 25.376c-0.727-0.006-1.407-0.205-1.991-0.548l0.019 0.010c-0.055-0.036-0.090-0.098-0.090-0.167 0-0.045 0.015-0.086 0.039-0.119l-0 0.001 2.813-3.791 0.646-2.241-1.847-5.866-0.572-0.932-7.49 4.574-1.944 2.687c-0.032 0.043-0.081 0.073-0.136 0.080l-0.001 0-1.658 0.212-2.161 3.242c-0.036 0.059-0.099 0.098-0.172 0.098-0.111 0-0.2-0.090-0.2-0.2 0-0.046 0.015-0.088 0.041-0.121l-0 0 2.201-3.35c0.032-0.047 0.083-0.079 0.142-0.086l0.001-0 1.664-0.212 1.915-2.647c0.015-0.021 0.035-0.038 0.056-0.051l0.001-0 7.69-4.705c0.029-0.018 0.065-0.028 0.103-0.028 0.072 0 0.136 0.039 0.171 0.096l0 0.001 0.709 1.143 1.887 5.98c0.005 0.017 0.008 0.037 0.008 0.057s-0.003 0.040-0.009 0.059l0-0.001-0.669 2.356c-0.006 0.024-0.016 0.045-0.029 0.064l0-0.001-2.699 3.636c0.438 0.24 0.961 0.382 1.516 0.382 0.979 0 1.855-0.439 2.443-1.132l0.004-0.005c2.047-2.201 0-5.386-0.046-5.414-0.018-0.026-0.030-0.057-0.034-0.090l-0-0.001-0.635-6.889-1.652-1.538-7.398 1.83-4.871 2.801c-0.029 0.017-0.064 0.027-0.101 0.027-0.083 0-0.155-0.051-0.185-0.123l-0-0.001-3.522-8.828h-6.175v7.232c0 0.111-0.090 0.2-0.2 0.2v0h-0.943v7.032h1.538c0.072 0 0.136 0.039 0.171 0.096l0 0.001 1.229 2.11c0.017 0.029 0.027 0.063 0.027 0.1 0 0.111-0.090 0.201-0.201 0.201-0.074 0-0.139-0.040-0.174-0.1l-0-0.001-1.143-2.013h-1.647c-0 0-0 0-0 0-0.108 0-0.197-0.086-0.2-0.194v-7.433c0-0.111 0.090-0.2 0.2-0.2v0h0.943v-7.232c0-0.111 0.090-0.2 0.2-0.2h6.512c0.001-0 0.002-0 0.003-0 0.084 0 0.155 0.051 0.185 0.124l0 0.001 3.482 8.736 4.7-2.704h0.051l7.524-1.875c0.015-0.004 0.031-0.006 0.049-0.006 0.052 0 0.099 0.020 0.134 0.052l-0-0 1.79 1.658c0.034 0.032 0.058 0.076 0.063 0.125l0 0.001 0.635 6.918c0.257 0.412 2.098 3.585 0 5.866-0.658 0.768-1.627 1.253-2.709 1.258h-0.001z"></path>
<path d="M13.047 14.456h-0.063l-6.695-2.218c-0.061-0.029-0.105-0.085-0.114-0.153l-0-0.001-0.229-5.483c-0.002-0.010-0.003-0.022-0.003-0.034 0-0.111 0.090-0.2 0.2-0.2 0.001 0 0.002 0 0.003 0h4.099c0 0 0 0 0.001 0 0.086 0 0.159 0.054 0.188 0.13l0 0.001 2.801 7.69c0.008 0.020 0.012 0.044 0.012 0.069 0 0.111-0.090 0.2-0.2 0.2-0 0-0 0-0.001 0h0zM6.569 11.901l6.152 2.035-2.619-7.17h-3.751z"></path>
<path d="M20.474 15.28c-0.11 0-0.2-0.090-0.2-0.2s0.090-0.2 0.2-0.2v0l6.861-0.955c0.007-0.001 0.016-0.002 0.025-0.002 0.101 0 0.184 0.075 0.198 0.172l0 0.001c0.001 0.007 0.002 0.016 0.002 0.025 0 0.101-0.075 0.184-0.172 0.198l-0.001 0-6.861 0.955z"></path>
<path d="M13.922 23.919h-8.576c-0.111 0-0.2-0.090-0.2-0.2s0.090-0.2 0.2-0.2h8.576c0.111 0 0.2 0.090 0.2 0.2s-0.090 0.2-0.2 0.2v0z"></path>
<path d="M25.328 24.873c-0.001 0-0.002 0-0.002 0-0.042 0-0.081-0.013-0.113-0.035l0.001 0-0.903-0.617c-0.053-0.037-0.087-0.097-0.087-0.166 0-0.111 0.090-0.201 0.201-0.201 0.043 0 0.082 0.013 0.115 0.036l-0.001-0 0.903 0.617c0.053 0.036 0.088 0.097 0.088 0.166 0 0.11-0.090 0.2-0.2 0.2-0.001 0-0.002 0-0.002-0h0z"></path>
</symbol>
<symbol id="icon-medium_ffg_line" viewBox="0 0 32 32">
<title>medium_ffg_line</title>
<path d="M7.601 28.608c-3.456 0-6.258-2.802-6.258-6.259s2.802-6.258 6.258-6.258c3.456 0 6.258 2.802 6.258 6.258v0c-0.003 3.455-2.803 6.255-6.258 6.258h-0zM7.601 16.514c-3.223 0-5.835 2.613-5.835 5.835s2.613 5.835 5.835 5.835c3.223 0 5.835-2.613 5.835-5.835v0c-0.003-3.221-2.614-5.832-5.835-5.835h-0z"></path>
<path d="M7.601 25.282c-1.62 0-2.933-1.313-2.933-2.933s1.313-2.933 2.933-2.933c1.62 0 2.933 1.313 2.933 2.933v0c-0.003 1.618-1.314 2.929-2.932 2.933h-0zM7.601 19.84c-1.386 0-2.509 1.123-2.509 2.509s1.123 2.509 2.509 2.509c1.386 0 2.509-1.123 2.509-2.509v0c-0.003-1.385-1.125-2.506-2.509-2.509h-0z"></path>
<path d="M28.463 28.608c-1.954 0-3.537-1.584-3.537-3.537s1.584-3.537 3.537-3.537c1.954 0 3.537 1.584 3.537 3.537v0c-0.003 1.952-1.585 3.534-3.537 3.537h-0zM28.463 21.956c-1.72 0-3.114 1.394-3.114 3.114s1.394 3.114 3.114 3.114c1.72 0 3.114-1.394 3.114-3.114v0c-0.003-1.718-1.396-3.111-3.114-3.114h-0z"></path>
<path d="M28.463 27.096c-1.119 0-2.026-0.907-2.026-2.026s0.907-2.026 2.026-2.026c1.119 0 2.026 0.907 2.026 2.026v0c0 1.119-0.907 2.026-2.026 2.026v0zM28.463 23.468c-0.885 0-1.602 0.717-1.602 1.602s0.717 1.602 1.602 1.602c0.885 0 1.602-0.717 1.602-1.602v0c0-0.885-0.717-1.602-1.602-1.602v0z"></path>
<path d="M3.447 14.628h-0.042c-0.097-0.021-0.168-0.106-0.168-0.207 0-0.017 0.002-0.033 0.006-0.048l-0 0.001 2.376-10.818c0.023-0.094 0.106-0.163 0.206-0.163h11.489c0.005-0 0.011-0.001 0.018-0.001 0.1 0 0.184 0.069 0.206 0.163l0 0.001 1.905 7.861c0.006 0.018 0.009 0.040 0.009 0.062 0 0.117-0.095 0.212-0.212 0.212-0.104 0-0.191-0.076-0.209-0.175l-0-0.001-1.875-7.698h-11.162l-2.364 10.642c-0.018 0.089-0.090 0.158-0.18 0.169l-0.001 0z"></path>
<path d="M30.119 18.328h-14.658c-0.117 0-0.212-0.095-0.212-0.212s0.095-0.212 0.212-0.212h14.458c0-0.496 0.060-1.881 0-3.912-0.085-2.352-2.419-2.316-2.522-2.316h-8.169c-0.117 0-0.212-0.095-0.212-0.212s0.095-0.212 0.212-0.212h8.151s2.848-0.048 2.951 2.727c0.091 2.576 0 4.136 0 4.148-0.007 0.112-0.099 0.2-0.211 0.2-0 0-0 0-0 0h0z"></path>
<path d="M15.837 24.375h-0.036c-0.099-0.019-0.173-0.105-0.173-0.208 0-0.014 0.001-0.028 0.004-0.041l-0 0.001c0-0.042 0.774-4.426-1.512-7.462-1.24-1.651-3.162-2.624-5.702-2.878-4.263-0.435-7.256 2.788-7.903 3.562l1.977 1.481c0.052 0.039 0.085 0.1 0.085 0.169 0 0.117-0.095 0.212-0.212 0.212-0.048 0-0.092-0.016-0.127-0.043l0.001 0-2.153-1.621c-0.052-0.039-0.085-0.1-0.085-0.169 0-0.048 0.016-0.092 0.043-0.128l-0 0.001c0.030-0.042 3.362-4.402 8.417-3.894 2.667 0.272 4.686 1.3 5.998 3.023 2.419 3.193 1.621 7.607 1.59 7.794-0.007 0.112-0.099 0.2-0.211 0.2-0 0-0 0-0 0h0z"></path>
<path d="M16.931 12.886h-2.727l-5.708-1.814c-0.083-0.028-0.142-0.103-0.145-0.193v-0l-0.169-4.838c-0.001-0.005-0.001-0.012-0.001-0.018 0-0.117 0.095-0.212 0.212-0.212 0 0 0.001 0 0.001 0h6.289c0.093 0.001 0.171 0.061 0.199 0.144l0 0.002 2.249 6.652c0.007 0.020 0.011 0.043 0.011 0.066 0 0.116-0.094 0.211-0.21 0.212h-0zM14.301 12.463h2.328l-2.116-6.228h-5.902l0.151 4.487z"></path>
<path d="M23.462 24.448v0l-7.619-0.073c-0.117 0-0.212-0.095-0.212-0.212s0.095-0.212 0.212-0.212v0l7.444 0.073c0.175-0.828 1.209-4.033 6.198-4.033h0.054l1.76 0.472c0.091 0.025 0.157 0.107 0.157 0.205 0 0.031-0.007 0.061-0.019 0.087l0.001-0.001-0.78 1.687c-0.027 0.088-0.108 0.15-0.202 0.15-0.117 0-0.212-0.095-0.212-0.212 0-0.042 0.012-0.082 0.034-0.115l-0 0.001 0.671-1.445-1.494-0.399c-5.303 0-5.763 3.689-5.781 3.846-0.015 0.103-0.103 0.181-0.209 0.181-0.001 0-0.002 0-0.002 0h0z"></path>
<path d="M29.37 20.324c-0.117 0-0.212-0.095-0.212-0.212v0-1.893c0-0.117 0.095-0.212 0.212-0.212s0.212 0.095 0.212 0.212v0 1.893c0 0.117-0.095 0.212-0.212 0.212v0z"></path>
</symbol>
<symbol id="icon-medium_leichte_nutzfahrzeuge" viewBox="0 0 32 32">
<title>medium_leichte_nutzfahrzeuge</title>
<path d="M31.787 22.588h-3.643c-0.117 0-0.213-0.095-0.213-0.213s0.095-0.213 0.213-0.213h3.431v-6.613l-5.465-2.562c-0.035-0.017-0.063-0.042-0.085-0.072l-0-0.001-4.074-6.115h-21.526v15.362h2.824c0.117 0 0.213 0.095 0.213 0.213s-0.095 0.213-0.213 0.213h-3.036c-0.117 0-0.213-0.095-0.213-0.213v0-15.787c0-0.117 0.095-0.213 0.213-0.213v0h21.86c0.074 0.001 0.138 0.039 0.176 0.096l0 0.001 4.080 6.157 5.55 2.593c0.072 0.035 0.121 0.108 0.121 0.192 0 0.001 0 0.002-0 0.002v-0 6.959c0 0.117-0.095 0.213-0.213 0.213v0z"></path>
<path d="M21.465 22.588h-11.537c-0.117 0-0.213-0.095-0.213-0.213s0.095-0.213 0.213-0.213h11.537c0.117 0 0.213 0.095 0.213 0.213s-0.095 0.213-0.213 0.213v0z"></path>
<path d="M22.655 14.694h-6.679c-0.117 0-0.213-0.095-0.213-0.213v0-4.25c0-0 0-0.001 0-0.001 0-0.117 0.095-0.213 0.213-0.213 0.009 0 0.017 0.001 0.025 0.002l-0.001-0h3.819c0.074 0.001 0.138 0.039 0.176 0.096l0 0.001 2.836 4.25c0.021 0.033 0.034 0.072 0.034 0.115 0 0.117-0.094 0.211-0.21 0.213h-0zM16.213 14.269h6.072l-2.55-3.825h-3.522z"></path>
<path d="M18.429 14.694c-0 0-0 0-0 0-0.115 0-0.209-0.092-0.212-0.206v-0l-0.061-4.25c-0-0.002-0-0.004-0-0.006 0-0.117 0.095-0.213 0.213-0.213 0 0 0 0 0 0v0c0.006-0.001 0.012-0.001 0.019-0.001 0.107 0 0.194 0.087 0.194 0.194 0 0.007-0 0.013-0.001 0.020l0-0.001 0.061 4.25c0 0 0 0 0 0 0 0.115-0.092 0.209-0.206 0.212h-0z"></path>
<path d="M6.588 25.624c-1.962 0-3.552-1.59-3.552-3.552s1.59-3.552 3.552-3.552c1.962 0 3.552 1.59 3.552 3.552v0c-0.003 1.96-1.592 3.549-3.552 3.552h-0zM6.588 18.945c-1.727 0-3.127 1.4-3.127 3.127s1.4 3.127 3.127 3.127c1.727 0 3.127-1.4 3.127-3.127v0c-0.003-1.726-1.401-3.124-3.127-3.127h-0z"></path>
<path d="M24.805 25.624c-1.962 0-3.552-1.59-3.552-3.552s1.59-3.552 3.552-3.552c1.962 0 3.552 1.59 3.552 3.552v0c-0.003 1.96-1.592 3.549-3.552 3.552h-0zM24.805 18.945c-1.727 0-3.127 1.4-3.127 3.127s1.4 3.127 3.127 3.127c1.727 0 3.127-1.4 3.127-3.127v0c-0.003-1.726-1.401-3.124-3.127-3.127h-0z"></path>
<path d="M24.805 24.106c-1.123 0-2.034-0.911-2.034-2.034s0.911-2.034 2.034-2.034c1.123 0 2.034 0.911 2.034 2.034v0c0 1.123-0.911 2.034-2.034 2.034v0zM24.805 20.463c-0.889 0-1.609 0.72-1.609 1.609s0.72 1.609 1.609 1.609c0.889 0 1.609-0.72 1.609-1.609v0c0-0.889-0.72-1.609-1.609-1.609v0z"></path>
<path d="M6.588 24.106c-1.123 0-2.034-0.911-2.034-2.034s0.911-2.034 2.034-2.034c1.123 0 2.034 0.911 2.034 2.034v0c0 1.123-0.911 2.034-2.034 2.034v0zM6.588 20.463c-0.889 0-1.609 0.72-1.609 1.609s0.72 1.609 1.609 1.609c0.889 0 1.609-0.72 1.609-1.609v0c0-0.889-0.72-1.609-1.609-1.609v0z"></path>
</symbol>
<symbol id="icon-medium_marine_line" viewBox="0 0 32 32">
<title>medium_marine_line</title>
<path d="M4.666 19.432c-0.607 0-1.1-0.492-1.1-1.1s0.492-1.1 1.1-1.1c0.607 0 1.1 0.492 1.1 1.1v0c0 0.607-0.492 1.1-1.1 1.1v0zM4.666 17.649c-0.378 0-0.684 0.306-0.684 0.684s0.306 0.684 0.684 0.684c0.378 0 0.684-0.306 0.684-0.684v0c0-0.378-0.306-0.684-0.684-0.684v0z"></path>
<path d="M7.638 19.432c-0.607 0-1.1-0.492-1.1-1.1s0.492-1.1 1.1-1.1c0.607 0 1.1 0.492 1.1 1.1v0c0 0.607-0.492 1.1-1.1 1.1v0zM7.638 17.649c-0.378 0-0.684 0.306-0.684 0.684s0.306 0.684 0.684 0.684c0.377 0 0.684-0.306 0.684-0.684v0c0-0.378-0.306-0.684-0.684-0.684v0z"></path>
<path d="M21.879 20.574v0c-6.669 0-19.383-0.048-19.799 0-0.008 0.001-0.017 0.002-0.026 0.002-0.105 0-0.192-0.078-0.206-0.179l-0-0.001-0.119-0.957h-1.522c-0 0-0 0-0 0-0.115 0-0.208-0.093-0.208-0.208 0-0.002 0-0.004 0-0.006v0-1.783c0-0.115 0.093-0.208 0.208-0.208v0h1.635l0.553-1.783c0.026-0.086 0.104-0.147 0.196-0.149h0l29.196-0.446c0.001-0 0.003-0 0.005-0 0.115 0 0.208 0.093 0.208 0.208 0 0.080-0.045 0.149-0.11 0.184l-0.001 0.001-9.896 5.302c-0.028 0.015-0.062 0.024-0.098 0.024-0.005 0-0.011-0-0.016-0.001l0.001 0zM7.329 20.128c5.349 0 13.076 0 14.503 0l9.076-4.838-28.156 0.428-0.553 1.783c-0.026 0.086-0.104 0.147-0.196 0.149h-1.587v1.367h1.492c0 0 0.001 0 0.001 0 0.107 0 0.194 0.080 0.207 0.183l0 0.001 0.119 0.951c0.636-0.018 2.615-0.018 5.088-0.018z"></path>
<path d="M5.944 15.587c-0.114-0.001-0.207-0.094-0.207-0.208 0-0.050 0.017-0.095 0.047-0.131l-0 0 2.378-2.883c0.035-0.041 0.085-0.067 0.142-0.071l0.001-0 9.011-0.868c0.007-0.001 0.014-0.001 0.022-0.001 0.054 0 0.102 0.021 0.138 0.055l-0-0 3.881 3.513c0.042 0.038 0.069 0.093 0.069 0.155 0 0.115-0.093 0.208-0.208 0.208-0.054 0-0.103-0.020-0.14-0.054l-3.84-3.453-8.826 0.856-2.33 2.817c-0.035 0.037-0.082 0.061-0.136 0.065l-0.001 0z"></path>
<path d="M13.73 15.551c-0.012 0.002-0.025 0.004-0.039 0.004s-0.027-0.001-0.040-0.004l0.001 0c-0.076-0.032-0.129-0.106-0.129-0.193 0-0.029 0.006-0.057 0.017-0.082l-0.001 0.001 1.438-3.513c0.032-0.076 0.107-0.129 0.193-0.129 0.116 0 0.209 0.094 0.209 0.209 0 0.029-0.006 0.057-0.017 0.082l0.001-0.001-1.444 3.495c-0.031 0.076-0.104 0.13-0.19 0.131h-0z"></path>
<path d="M9.249 15.622c-0.113-0.002-0.204-0.094-0.204-0.208 0-0.032 0.007-0.063 0.021-0.090l-0.001 0.001 1.563-3.15c0.035-0.070 0.106-0.117 0.187-0.117 0.115 0 0.209 0.093 0.209 0.209 0 0.034-0.008 0.065-0.022 0.093l0.001-0.001-1.557 3.15c-0.035 0.068-0.105 0.113-0.185 0.113-0.004 0-0.008-0-0.011-0l0.001 0z"></path>
</symbol>
<symbol id="icon-medium_moto_line" viewBox="0 0 32 32">
<title>medium_moto_line</title>
<path d="M4.831 24.693c-2.626 0-4.755-2.129-4.755-4.755s2.129-4.755 4.755-4.755c2.626 0 4.755 2.129 4.755 4.755v0c-0.003 2.625-2.13 4.752-4.755 4.755h-0zM4.831 15.606c-2.392 0-4.331 1.939-4.331 4.331s1.939 4.331 4.331 4.331c2.392 0 4.331-1.939 4.331-4.331v0c-0.003-2.391-1.941-4.328-4.331-4.331h-0z"></path>
<path d="M4.831 21.361c-0.786 0-1.424-0.637-1.424-1.424s0.637-1.424 1.424-1.424c0.786 0 1.424 0.637 1.424 1.424v0c0 0.786-0.637 1.424-1.424 1.424v0zM4.831 18.938c-0.552 0-1 0.448-1 1s0.448 1 1 1c0.552 0 1-0.448 1-1v0c0-0.552-0.447-1-1-1v0z"></path>
<path d="M27.245 21.361c-0.786 0-1.424-0.637-1.424-1.424s0.637-1.424 1.424-1.424c0.786 0 1.424 0.637 1.424 1.424v0c0 0.786-0.637 1.424-1.424 1.424v0zM27.245 18.938c-0.552 0-1 0.448-1 1s0.448 1 1 1c0.552 0 1-0.448 1-1v0c0-0.552-0.448-1-1-1v0z"></path>
<path d="M27.245 24.693c-2.626 0-4.755-2.129-4.755-4.755s2.129-4.755 4.755-4.755c2.626 0 4.755 2.129 4.755 4.755v0c-0.003 2.625-2.13 4.752-4.755 4.755h-0zM27.245 15.606c-2.392 0-4.331 1.939-4.331 4.331s1.939 4.331 4.331 4.331c2.392 0 4.331-1.939 4.331-4.331v0c-0.003-2.391-1.941-4.328-4.331-4.331h-0z"></path>
<path d="M4.831 20.15c-0.002 0-0.003 0-0.005 0-0.117 0-0.212-0.095-0.212-0.212 0-0.086 0.051-0.16 0.125-0.193l0.001-0.001 5.731-2.708c0.022-0.009 0.048-0.014 0.076-0.014 0.117 0 0.212 0.095 0.212 0.212 0 0.078-0.042 0.146-0.105 0.183l-0.001 0.001-5.719 2.714c-0.026 0.012-0.056 0.019-0.087 0.019-0.006 0-0.011-0-0.016-0.001l0.001 0z"></path>
<path d="M14.487 21.64c-1.593 0-3.417-0.206-3.532-0.218-0.106-0.013-0.188-0.102-0.188-0.211 0-0 0-0.001 0-0.001v0c0.003-0.131 0.005-0.285 0.005-0.439 0-1.016-0.077-2.015-0.225-2.99l0.014 0.109c-0.218-0.86-0.503-1.49-2.478-2.35-1.443-0.588-3.18-1.128-4.971-1.527l-0.227-0.042c-0.093-0.019-0.163-0.098-0.17-0.193l-0-0.001-0.091-1.714-2.526-1.345c-0.060-0.038-0.099-0.104-0.099-0.18 0-0.094 0.061-0.174 0.146-0.202l0.002-0c0.708-0.156 1.523-0.249 2.358-0.254l0.004-0c2.686 0.126 5.217 0.505 7.657 1.117l-0.266-0.057c2.617 0.606 5.482-0.127 7.687-0.806 1.14-0.433 2.461-0.736 3.836-0.851l0.053-0.004c0.751 0 1.545 0.788 1.817 1.066 0.96-0.192 2.063-0.302 3.192-0.302 0.141 0 0.281 0.002 0.421 0.005l-0.021-0c1.279 0.059 2.484 0.277 3.627 0.633l-0.102-0.027c0.444 0.207 0.746 0.649 0.746 1.162 0 0.017-0 0.035-0.001 0.052l0-0.002c0.001 0.011 0.001 0.023 0.001 0.035 0 0.204-0.092 0.387-0.236 0.509l-0.001 0.001c-0.191 0.116-0.423 0.185-0.67 0.185-0.157 0-0.308-0.028-0.448-0.079l0.009 0.003c-0.551-0.121-2.653-0.479-3.083-0.479-1.369 0.020-2.656 0.351-3.8 0.926l0.050-0.023 4.465 6.7c0.027 0.035 0.043 0.080 0.043 0.128 0 0.117-0.095 0.212-0.212 0.212-0.077 0-0.145-0.041-0.182-0.103l-0.001-0.001-4.483-6.718c-0.606 0.412-2.581 1.908-3.35 3.901-0.963 2.508-1.442 3.635-2.714 4.162-0.5 0.142-1.074 0.224-1.667 0.224-0.138 0-0.275-0.004-0.411-0.013l0.018 0.001zM11.197 21.034c0.836 0.085 4.192 0.406 5.186 0 1.109-0.46 1.563-1.533 2.484-3.919 0.957-2.484 3.58-4.156 3.689-4.241v0c1.204-0.661 2.634-1.059 4.154-1.084l0.008-0c1.235 0.127 2.315 0.298 3.376 0.521l-0.208-0.037c0.111 0.045 0.24 0.071 0.376 0.071s0.264-0.026 0.383-0.073l-0.007 0.002c0.050-0.046 0.081-0.111 0.081-0.184 0-0.012-0.001-0.024-0.003-0.036l0 0.001c0.001-0.016 0.002-0.034 0.002-0.053 0-0.322-0.177-0.603-0.44-0.751l-0.004-0.002c-0.997-0.318-2.153-0.534-3.348-0.604l-0.039-0.002c-0.125-0.003-0.273-0.005-0.421-0.005-1.137 0-2.247 0.114-3.32 0.332l0.107-0.018c-0.013 0.003-0.027 0.004-0.043 0.004-0.066 0-0.124-0.030-0.163-0.077l-0-0c-0.236-0.279-0.981-1.012-1.557-1.012-1.386 0.122-2.665 0.419-3.869 0.869l0.101-0.033c-2.26 0.721-5.198 1.448-7.912 0.842-2.136-0.546-4.626-0.921-7.182-1.045l-0.088-0.003c-0.606 0.012-1.189 0.060-1.76 0.142l0.076-0.009 2.072 1.115c0.052 0.039 0.085 0.101 0.085 0.17 0 0.002-0 0.004-0 0.006v-0l0.091 1.666c1.989 0.438 3.702 0.974 5.35 1.637l-0.225-0.080c1.969 0.854 2.423 1.533 2.72 2.635 0.159 0.896 0.25 1.928 0.25 2.981 0 0.089-0.001 0.178-0.002 0.267l0-0.013z"></path>
<path d="M20.854 9.664c-0.083-0.002-0.154-0.050-0.187-0.12l-0.001-0.001-0.897-1.811h-3.108c-0.117 0-0.212-0.095-0.212-0.212s0.095-0.212 0.212-0.212v0h3.247c0.083 0.002 0.154 0.050 0.187 0.12l0.001 0.001 0.951 1.932c0.014 0.027 0.022 0.060 0.022 0.094 0 0.083-0.048 0.155-0.118 0.19l-0.001 0.001c-0.025 0.012-0.054 0.019-0.084 0.019-0.004 0-0.009-0-0.013-0l0.001 0z"></path>
<path d="M13.651 14.685c-1.502 0-6.506-1.648-7.348-2.46-0.489-0.39-0.8-0.985-0.8-1.653 0-0.013 0-0.026 0-0.039l-0 0.002c0.006-0.112 0.098-0.201 0.212-0.201 0.009 0 0.017 0.001 0.026 0.002l-0.001-0c0.104 0.015 0.183 0.103 0.183 0.21 0 0.009-0.001 0.018-0.002 0.027l0-0.001c0.014 0.539 0.273 1.016 0.669 1.324l0.004 0.003c0.788 0.757 6.167 2.508 7.197 2.332s3.314-1.109 4.035-2.29 0.563-1.605 0.563-1.605c-0.005-0.018-0.008-0.038-0.008-0.059 0-0.094 0.061-0.174 0.146-0.202l0.002-0c0.019-0.007 0.041-0.010 0.064-0.010 0.091 0 0.169 0.060 0.196 0.142l0 0.001c0 0.067 0.2 0.691-0.606 2.005s-3.205 2.302-4.325 2.49z"></path>
</symbol>
<symbol id="icon-medium_swiss_line" viewBox="0 0 32 32">
<title>medium_swiss_line</title>
<path d="M31.731 29.593h-31.463c-0.148 0-0.269-0.12-0.269-0.269v-3.070c0-0.148 0.12-0.269 0.269-0.269v0h31.463c0.148 0 0.269 0.12 0.269 0.269v0 3.070c0 0.148-0.12 0.269-0.269 0.269v0zM0.537 29.055h30.926v-2.532h-30.926z"></path>
<path d="M13.314 26.523h-8.441c-0.148 0-0.269-0.12-0.269-0.269v0-14.634c-0-0.001-0-0.002-0-0.004 0-0.073 0.029-0.14 0.077-0.188l-0 0 4.466-4.543c0.048-0.047 0.115-0.077 0.188-0.077 0.001 0 0.003 0 0.004 0h3.975c0.148 0 0.269 0.12 0.269 0.269v0 19.185c-0.004 0.145-0.123 0.261-0.268 0.261-0 0-0 0-0 0v0zM5.141 25.986h7.904v-18.647h-3.599l-4.305 4.389z"></path>
<path d="M16.384 15.78h-3.070c-0.148 0-0.269-0.12-0.269-0.269v0-6.906c0-0.148 0.12-0.269 0.269-0.269v0h3.070c0.148 0 0.269 0.12 0.269 0.269v0 6.906c0 0.148-0.12 0.269-0.269 0.269v0zM13.583 15.242h2.532v-6.369h-2.532z"></path>
<path d="M19.453 14.245h-3.070c-0.148 0-0.269-0.12-0.269-0.269v0-4.604c0-0.148 0.12-0.269 0.269-0.269v0h3.070c0.148 0 0.269 0.12 0.269 0.269v0 4.604c0 0.148-0.12 0.269-0.269 0.269v0zM16.652 13.708h2.532v-4.067h-2.532z"></path>
<path d="M22.523 21.151c-0.148 0-0.269-0.12-0.269-0.269v0-5.372c0-0.148 0.12-0.269 0.269-0.269s0.269 0.12 0.269 0.269v0 5.372c0 0.148-0.12 0.269-0.269 0.269v0z"></path>
<path d="M26.36 15.78h-6.906c-0.148 0-0.269-0.12-0.269-0.269v0-9.124c0.001-1.145 0.425-2.192 1.125-2.99l-0.005 0.005c0.63-0.615 1.492-0.994 2.443-0.994 0.056 0 0.111 0.001 0.167 0.004l-0.008-0c0.051-0.003 0.111-0.004 0.172-0.004 0.954 0 1.819 0.379 2.453 0.995l-0.001-0.001c0.681 0.774 1.097 1.796 1.097 2.915 0 0 0 0.001 0 0.001v-0 9.209c-0.008 0.142-0.125 0.253-0.268 0.253-0 0-0 0-0 0h0zM19.722 15.511v0zM19.722 15.242h6.369v-8.925c-0.005-0.972-0.361-1.861-0.948-2.545l0.004 0.005c-0.539-0.516-1.271-0.833-2.078-0.833-0.057 0-0.114 0.002-0.171 0.005l0.008-0c-0.037-0.002-0.080-0.003-0.123-0.003-0.802 0-1.529 0.317-2.065 0.832l0.001-0.001c-0.607 0.693-0.983 1.602-0.998 2.598l-0 0.003z"></path>
<path d="M19.453 11.175c-0.148 0-0.269-0.12-0.269-0.269s0.12-0.269 0.269-0.269h6.906c0.148 0 0.269 0.12 0.269 0.269s-0.12 0.269-0.269 0.269v0z"></path>
</symbol>
<symbol id="icon-medium_truck_line" viewBox="0 0 32 32">
<title>medium_truck_line</title>
<path d="M6.57 28.062c-1.628 0-2.947-1.319-2.947-2.947s1.319-2.947 2.947-2.947c1.628 0 2.947 1.319 2.947 2.947v0c-0.003 1.626-1.321 2.944-2.947 2.947h-0zM6.57 22.593c-1.382 0.014-2.497 1.137-2.497 2.522 0 1.393 1.129 2.522 2.522 2.522s2.522-1.129 2.522-2.522v0c-0.003-1.393-1.134-2.522-2.528-2.522-0.006 0-0.013 0-0.019 0h0.001z"></path>
<path d="M25.407 28.062c-1.628 0-2.947-1.319-2.947-2.947s1.319-2.947 2.947-2.947c1.628 0 2.947 1.319 2.947 2.947v0c-0.003 1.626-1.321 2.944-2.947 2.947h-0zM25.407 22.593c-1.382 0.014-2.497 1.137-2.497 2.522 0 1.393 1.129 2.522 2.522 2.522s2.522-1.129 2.522-2.522v0c-0.003-1.393-1.134-2.522-2.528-2.522-0.006 0-0.013 0-0.019 0h0.001z"></path>
<path d="M25.407 26.543c-0.789 0-1.428-0.639-1.428-1.428s0.639-1.428 1.428-1.428c0.789 0 1.428 0.639 1.428 1.428v0c0 0.789-0.639 1.428-1.428 1.428v0zM25.407 24.112c-0.554 0-1.003 0.449-1.003 1.003s0.449 1.003 1.003 1.003c0.554 0 1.003-0.449 1.003-1.003v0c0-0.554-0.449-1.003-1.003-1.003v0z"></path>
<path d="M6.57 26.543c-0.789 0-1.428-0.639-1.428-1.428s0.639-1.428 1.428-1.428c0.789 0 1.428 0.639 1.428 1.428v0c0 0.789-0.639 1.428-1.428 1.428v0zM6.57 24.112c-0.554 0-1.003 0.449-1.003 1.003s0.449 1.003 1.003 1.003c0.554 0 1.003-0.449 1.003-1.003v0c0-0.554-0.449-1.003-1.003-1.003v0z"></path>
<path d="M19.634 21.378c-0.117 0-0.213-0.095-0.213-0.213v0-16.801h-17.804v16.589h8.294c0.117 0 0.213 0.095 0.213 0.213s-0.095 0.213-0.213 0.213h-8.507c-0.107-0.013-0.188-0.102-0.188-0.211 0-0 0-0.001 0-0.001v0-17.014c0-0 0-0.001 0-0.001 0-0.109 0.082-0.199 0.187-0.211l0.001-0h18.229c0.117 0 0.213 0.095 0.213 0.213v0 17.014c0 0.117-0.095 0.213-0.213 0.213v0z"></path>
<path d="M4.298 23.808h-2.99c-0.729-0.081-1.292-0.687-1.306-1.427l-0-0.001c-0.001-0.019-0.001-0.041-0.001-0.063 0-0.374 0.151-0.713 0.396-0.958v0c0.295-0.253 0.682-0.408 1.105-0.408 0.013 0 0.026 0 0.039 0l-0.002-0c0.112 0.007 0.201 0.099 0.201 0.212 0 0.002-0 0.005-0 0.007v-0c-0.007 0.115-0.102 0.207-0.218 0.207-0 0-0 0-0 0h0c-0.004-0-0.009-0-0.014-0-0.312 0-0.597 0.11-0.821 0.294l0.002-0.002c-0.163 0.17-0.263 0.401-0.263 0.655 0 0.020 0.001 0.039 0.002 0.058l-0-0.003c0.017 0.516 0.406 0.936 0.906 1.002l0.005 0.001h2.959c0.117 0 0.213 0.095 0.213 0.213s-0.095 0.213-0.213 0.213v0z"></path>
<path d="M31.18 21.378c-0.117 0-0.213-0.095-0.213-0.213v0-6.751l-4.594-6.405h-6.739c-0.117 0-0.213-0.095-0.213-0.213s0.095-0.213 0.213-0.213h6.848c0.070 0.002 0.132 0.037 0.17 0.090l0 0.001 4.697 6.55c0.025 0.034 0.041 0.076 0.043 0.121v6.818c0 0.117-0.095 0.213-0.213 0.213v0z"></path>
<path d="M28.597 13.478h-6.532c-0.117 0-0.213-0.095-0.213-0.213v0-3.646c0-0.117 0.095-0.213 0.213-0.213v0h3.767c0.069 0 0.131 0.033 0.17 0.085l0 0.001 2.765 3.646c0.027 0.035 0.043 0.079 0.043 0.128 0 0.117-0.095 0.213-0.213 0.213v0zM22.278 13.053h5.894l-2.431-3.22h-3.464z"></path>
<path d="M26.319 21.378h-17.014c-0.117 0-0.213-0.095-0.213-0.213s0.095-0.213 0.213-0.213h17.014c0.117 0 0.213 0.095 0.213 0.213s-0.095 0.213-0.213 0.213v0z"></path>
<path d="M23.134 23.808h-14.182c-0.117 0-0.213-0.095-0.213-0.213s0.095-0.213 0.213-0.213h14.182c0.117 0 0.213 0.095 0.213 0.213s-0.095 0.213-0.213 0.213v0z"></path>
<path d="M31.787 23.808h-4.108c-0.117 0-0.213-0.095-0.213-0.213s0.095-0.213 0.213-0.213h3.919v-2.005h-5.888c-0.117 0-0.213-0.095-0.213-0.213s0.095-0.213 0.213-0.213h6.076c0.117 0 0.213 0.095 0.213 0.213v0 2.431c0 0.117-0.095 0.213-0.213 0.213v0z"></path>
</symbol>
</defs>
</svg>
