<svg version="1" xmlns="http://www.w3.org/2000/svg" width="933.333" height="933.333" viewBox="0 0 700.000000 700.000000"><path d="M327.7 19.6c-.1.1-31.7.5-70.2.8-38.5.4-71.2.8-72.6 1-3.9.6-8.6 3.3-9.1 5.3-.2 1-.6 13.9-.8 28.8-.7 40.9-.5 542.7.2 584.4.5 36.2.6 36.5 2.8 38.3 1.5 1.2 3.9 1.8 7.1 1.8 7 0 8.9-2.2 9-10.3.1-3.4.3-10.3.5-15.2.2-5 .6-144.2.9-309.5.2-165.3.4-301.2.5-302.1 0-1.5 12.3-1.6 142.3-1.8 167.7-.2 175.2-.4 182.7-3.9 3.2-1.5 3.5-2.2 3.8-6.3.2-3.3-.2-4.9-1.5-6.1-2.9-2.6-13.1-3.8-38.8-4.4-20.8-.5-156.4-1.2-156.8-.8z"/><path d="M333.7 149.6c-.1.1-5.7.4-12.4.7-6.7.3-13 1-14.1 1.6-1.1.6-2.3 2.3-2.7 3.8-1.1 4.4-1.6 126.1-.5 131.8.6 2.7 1.6 5.5 2.3 6.3.7.7 4.4 1.5 8.3 1.9 9.7.9 130.3 1 139.2.1 10.9-1.2 13.2-2.7 13.2-9.1 0-4-2.7-7.6-5.7-7.8-1 0-2.7-.3-3.8-.5-1.1-.3-17.5-.7-36.5-.9-19-.3-47.8-.7-64.1-.9-18-.2-30.4-.8-31.5-1.4-1.8-1-1.9-3.4-1.9-53.3 0-34.1.3-52.3 1-52.5.5-.2 43.5-.5 95.5-.7 88.1-.4 99.4-.6 102-2.2 2.1-1.3 4.1-6.7 3.6-9.7-.8-5.1-2.3-5.8-13.6-6.4-9.1-.5-177.7-1.3-178.3-.8zM317.7 405.6c-.2.2-2.3.5-4.6.6-6.7.2-8 2-8.6 11.3-1.3 20-2 70.7-2 149 .1 87.1.5 104.7 2.5 108.5 1.3 2.4 6.6 5 10.3 5 4.9 0 5.6-1.6 6.2-14.5.9-16.2 2.1-113.4 2.9-216.2.1-12.2.5-22.5.9-22.9.8-.8 19.6-1.1 93.4-1.4l44.3-.2 1.4-3.1c2.5-5.6 2.6-8 .6-12.5l-1.9-4.3-72.5.2c-39.9.1-72.7.3-72.9.5z"/></svg>