<!-- Generated by IcoMoon.io -->
<svg version="1.1" xmlns="http://www.w3.org/2000/svg" width="24" height="24" viewBox="0 0 24 24">
<title>sliders</title>
<path d="M13 4c0 0.6 0.4 1 1 1h7c0.6 0 1-0.4 1-1s-0.4-1-1-1h-7c-0.6 0-1 0.4-1 1z"></path>
<path d="M13 12c0-0.6-0.4-1-1-1h-9c-0.6 0-1 0.4-1 1s0.4 1 1 1h9c0.6 0 1-0.4 1-1z"></path>
<path d="M11 20c0 0.6 0.4 1 1 1h9c0.6 0 1-0.4 1-1s-0.4-1-1-1h-9c-0.6 0-1 0.4-1 1z"></path>
<path d="M11 7v-6c0-0.6-0.4-1-1-1s-1 0.4-1 1v2h-6c-0.6 0-1 0.4-1 1s0.4 1 1 1h6v2c0 0.6 0.4 1 1 1s1-0.4 1-1z"></path>
<path d="M17 15v-2h4c0.6 0 1-0.4 1-1s-0.4-1-1-1h-4v-2c0-0.6-0.4-1-1-1s-1 0.4-1 1v6c0 0.6 0.4 1 1 1s1-0.4 1-1z"></path>
<path d="M9 23v-6c0-0.6-0.4-1-1-1s-1 0.4-1 1v2h-4c-0.6 0-1 0.4-1 1s0.4 1 1 1h4v2c0 0.6 0.4 1 1 1s1-0.4 1-1z"></path>
</svg>
