<?xml version="1.0" encoding="UTF-8" standalone="no"?>
<!-- Created with Inkscape (http://www.inkscape.org/) -->

<svg
   xmlns:dc="http://purl.org/dc/elements/1.1/"
   xmlns:cc="http://creativecommons.org/ns#"
   xmlns:rdf="http://www.w3.org/1999/02/22-rdf-syntax-ns#"
   xmlns:svg="http://www.w3.org/2000/svg"
   xmlns="http://www.w3.org/2000/svg"
   xmlns:sodipodi="http://sodipodi.sourceforge.net/DTD/sodipodi-0.dtd"
   xmlns:inkscape="http://www.inkscape.org/namespaces/inkscape"
   id="svg4287"
   version="1.1"
   inkscape:version="0.92.3 (2405546, 2018-03-11)"
   width="213.33333"
   height="213.33333"
   viewBox="0 0 200 200"
   sodipodi:docname="noImage.svg"
   inkscape:export-filename="/home/kore/devel/Frontastic/frontend/src/layout/noImage.png"
   inkscape:export-xdpi="180"
   inkscape:export-ydpi="180">
  <metadata
     id="metadata4293">
    <rdf:RDF>
      <cc:Work
         rdf:about="">
        <dc:format>image/svg+xml</dc:format>
        <dc:type
           rdf:resource="http://purl.org/dc/dcmitype/StillImage" />
        <dc:title />
      </cc:Work>
    </rdf:RDF>
  </metadata>
  <defs
     id="defs4291" />
  <sodipodi:namedview
     pagecolor="#ffffff"
     bordercolor="#666666"
     borderopacity="1"
     objecttolerance="10"
     gridtolerance="10"
     guidetolerance="10"
     inkscape:pageopacity="0"
     inkscape:pageshadow="2"
     inkscape:window-width="1920"
     inkscape:window-height="1055"
     id="namedview4289"
     showgrid="false"
     inkscape:zoom="2.8284271"
     inkscape:cx="153.92062"
     inkscape:cy="102.25305"
     inkscape:window-x="0"
     inkscape:window-y="25"
     inkscape:window-maximized="1"
     inkscape:current-layer="svg4287"
     showguides="false" />
  <path
     style="fill:#babdb6;stroke-width:1"
     d="m 87.65851,22.020214 c -13.480178,0.154428 -27.010911,0.07423 -40.43598,1.313769 -3.46092,5.45418 -0.591845,21.449587 7.220911,12.263121 3.572207,-7.570749 15.47085,-2.868042 22.352982,-4.693614 16.797756,-0.65345 34.018727,-0.761579 50.070887,-6.34082 -2.64354,-4.167296 -15.26962,-1.386477 -21.45271,-2.482885 -5.918387,-0.0706 -11.837371,-0.08437 -17.75609,-0.05957 z m 64.72467,0.211978 c -7.93658,-2.986624 -10.99172,8.201362 -2.13334,8.161673 4.97877,0.51938 9.97747,0.796395 14.97033,1.14316 0.38945,38.595796 -0.0747,77.212115 1.32326,115.788485 -2.92847,7.81163 8.7265,9.4549 7.62358,1.2063 0.99334,-41.93566 0.33769,-83.890324 -0.1128,-125.82883 -7.22353,-0.158952 -14.44567,-0.421696 -21.67103,-0.470788 z m -17.16032,8.649183 C 97.046612,36.327072 59.047357,43.04435 21.073504,49.764307 9.8797408,48.705741 15.143671,60.693691 15.451805,67.464297 21.2105,105.61804 27.068395,143.78581 34.43402,181.66462 c 3.873367,6.33809 14.245846,-0.88104 20.636304,-0.23337 34.951594,-6.04695 70.132676,-10.91952 104.892296,-17.98493 -4.23355,-32.85401 -10.16876,-65.487465 -15.55344,-98.175273 -2.04093,-10.920468 -3.47023,-22.006062 -6.18797,-32.769794 -0.54819,-1.098604 -1.81699,-1.658321 -2.99835,-1.619878 z m 17.429,6.334683 c -8.64703,1.682124 -2.34397,13.771119 -2.4944,19.968841 2.21681,13.020222 4.58335,26.014483 6.82762,39.029977 4.38535,-3.16384 1.41264,-14.390462 2.52298,-20.532756 -0.29093,-11.810554 0.84663,-23.84628 -0.91589,-35.513163 -0.46497,-2.948248 -3.55501,-3.099514 -5.94031,-2.952899 z m -24.68308,4.089197 c 3.6095,7.6378 4.20306,16.482218 6.16191,24.701053 5.49589,29.549597 11.28206,59.074932 15.38817,88.856082 -4.55379,4.4058 -14.86465,3.60929 -21.80358,5.6933 C 99.601153,165.535 71.426998,170.174 43.24425,174.74522 38.651598,169.33898 39.812504,160.09127 37.736322,153.11287 32.697249,122.83435 27.39018,92.582012 23.266584,62.16534 25.868475,54.220014 38.563248,57.497939 45.326463,54.581583 72.844302,49.989788 100.34018,45.167714 127.96878,41.305255 Z m -3.542,7.369923 c -27.489013,3.344569 -54.753705,8.457 -81.987032,13.461238 -7.606769,0.02445 -14.020524,3.194954 -10.433152,11.784354 3.709081,25.598775 7.634048,51.20288 12.738757,76.5604 3.763577,6.61655 14.606236,-0.63522 21.072169,0.009 24.816227,-4.45795 49.709228,-8.62549 74.347378,-13.97181 -2.86229,-23.62014 -7.521,-47.020874 -11.69601,-70.449496 -1.38947,-5.676323 -1.72825,-12.314215 -4.04211,-17.393087 z"
     id="path4307"
     inkscape:connector-curvature="0" />
  <path
     inkscape:connector-curvature="0"
     id="path4962"
     d="m 152.65186,37.216058 c -8.64703,1.682124 -2.34397,13.771119 -2.4944,19.968841 2.21681,13.020222 4.58335,26.014483 6.82762,39.029977 4.38535,-3.16384 1.41264,-14.390462 2.52298,-20.532756 -0.29093,-11.810554 0.84663,-23.84628 -0.91589,-35.513163 -0.46497,-2.948248 -3.55501,-3.099514 -5.94031,-2.952899 z m -28.22508,11.45912 c -27.489013,3.344569 -54.753705,8.457 -81.987032,13.461238 -7.606769,0.02445 -14.020524,3.194954 -10.433152,11.784354 3.709081,25.598775 7.634048,51.20288 12.738757,76.5604 3.763577,6.61655 14.606236,-0.63522 21.072169,0.009 24.816227,-4.45795 49.709228,-8.62549 74.347378,-13.97181 -2.86229,-23.62014 -7.521,-47.020874 -11.69601,-70.449496 -1.38947,-5.676323 -1.72825,-12.314215 -4.04211,-17.393087 z"
     style="fill:#888a85;stroke-width:1"
     sodipodi:nodetypes="ccccccccccccccc" />
  <g
     aria-label="Image
coming
soon"
     transform="rotate(-10.113968)"
     inkscape:transform-center-x="-5.9662136"
     inkscape:transform-center-y="4.6403884"
     style="font-style:normal;font-variant:normal;font-weight:bold;font-stretch:normal;font-size:16.25px;line-height:125%;font-family:'DejaVu Sans';-inkscape-font-specification:'DejaVu Sans, Bold';font-variant-ligatures:normal;font-variant-caps:normal;font-variant-numeric:normal;font-feature-settings:normal;text-align:center;letter-spacing:0px;word-spacing:0px;writing-mode:lr-tb;text-anchor:middle;fill:#ffffff;fill-opacity:1;stroke:none;stroke-width:0.93750006px;stroke-linecap:butt;stroke-linejoin:miter;stroke-opacity:1"
     id="text817">
    <path
       d="m 39.384918,88.735649 h 3.05481 v 11.846311 h -3.05481 z"
       style="font-style:normal;font-variant:normal;font-weight:bold;font-stretch:normal;font-size:16.25px;font-family:'DejaVu Sans';-inkscape-font-specification:'DejaVu Sans, Bold';font-variant-ligatures:normal;font-variant-caps:normal;font-variant-numeric:normal;font-feature-settings:normal;text-align:center;writing-mode:lr-tb;text-anchor:middle;fill:#ffffff;stroke-width:0.93750006px"
       id="path827" />
    <path
       d="m 53.556061,93.171074 q 0.539551,-0.825195 1.277466,-1.253662 0.745849,-0.436402 1.634521,-0.436402 1.531372,0 2.332764,0.944214 0.801391,0.944214 0.801391,2.745362 v 5.411374 h -2.856445 v -4.633786 q 0.0079,-0.10315 0.0079,-0.214234 0.0079,-0.111084 0.0079,-0.317383 0,-0.944214 -0.27771,-1.364746 -0.27771,-0.428467 -0.896606,-0.428467 -0.809326,0 -1.253662,0.666504 -0.436402,0.666504 -0.452271,1.928101 v 4.364011 h -2.856445 v -4.633786 q 0,-1.475831 -0.253906,-1.896363 -0.253907,-0.428467 -0.904541,-0.428467 -0.817261,0 -1.261597,0.674439 -0.444336,0.666504 -0.444336,1.912231 v 4.371946 h -2.856445 v -8.886716 h 2.856445 v 1.301269 q 0.523682,-0.753784 1.19812,-1.134643 0.682373,-0.38086 1.499634,-0.38086 0.92041,0 1.626587,0.444336 0.706177,0.444336 1.071167,1.245728 z"
       style="font-style:normal;font-variant:normal;font-weight:bold;font-stretch:normal;font-size:16.25px;font-family:'DejaVu Sans';-inkscape-font-specification:'DejaVu Sans, Bold';font-variant-ligatures:normal;font-variant-caps:normal;font-variant-numeric:normal;font-feature-settings:normal;text-align:center;writing-mode:lr-tb;text-anchor:middle;fill:#ffffff;stroke-width:0.93750006px"
       id="path829" />
    <path
       d="m 66.251373,96.582939 q -0.888672,0 -1.340942,0.301514 -0.444336,0.301513 -0.444336,0.888672 0,0.53955 0.357056,0.848999 0.36499,0.301513 1.00769,0.301513 0.801392,0 1.348877,-0.571289 0.547485,-0.579223 0.547485,-1.444091 v -0.325318 z m 4.34021,-1.071167 v 5.070188 h -2.86438 v -1.317136 q -0.571289,0.809326 -1.2854,1.182246 -0.714111,0.365 -1.737671,0.365 -1.380615,0 -2.245483,-0.8014 -0.856934,-0.809323 -0.856934,-2.094723 0,-1.56311 1.071167,-2.293091 1.079102,-0.72998 3.380127,-0.72998 h 1.674194 v -0.222168 q 0,-0.674439 -0.531616,-0.983887 -0.531616,-0.317383 -1.658325,-0.317383 -0.912476,0 -1.697998,0.182495 -0.785523,0.182495 -1.459961,0.547486 v -2.166138 q 0.912476,-0.222168 1.832886,-0.333252 0.92041,-0.119019 1.84082,-0.119019 2.404175,0 3.467407,0.952149 1.071167,0.944214 1.071167,3.078613 z"
       style="font-style:normal;font-variant:normal;font-weight:bold;font-stretch:normal;font-size:16.25px;font-family:'DejaVu Sans';-inkscape-font-specification:'DejaVu Sans, Bold';font-variant-ligatures:normal;font-variant-caps:normal;font-variant-numeric:normal;font-feature-settings:normal;text-align:center;writing-mode:lr-tb;text-anchor:middle;fill:#ffffff;stroke-width:0.93750006px"
       id="path831" />
    <path
       d="m 79.295807,99.074394 q -0.587158,0.777588 -1.293335,1.142576 -0.706177,0.36499 -1.634522,0.36499 -1.626586,0 -2.689819,-1.277463 -1.063232,-1.285401 -1.063232,-3.269043 0,-1.991577 1.063232,-3.261109 1.063233,-1.277465 2.689819,-1.277465 0.928345,0 1.634522,0.36499 0.706177,0.36499 1.293335,1.150513 v -1.317139 h 2.856445 v 7.990112 q 0,2.142334 -1.356811,3.269044 -1.348877,1.13464 -3.919678,1.13464 -0.83313,0 -1.610718,-0.12695 -0.777588,-0.12695 -1.56311,-0.38879 v -2.21375 q 0.745849,0.42847 1.459961,0.63477 0.714111,0.21423 1.436157,0.21423 1.396484,0 2.047119,-0.61096 0.650635,-0.61096 0.650635,-1.912234 z m -1.872559,-5.530395 q -0.880737,0 -1.37268,0.650634 -0.491944,0.650635 -0.491944,1.840821 0,1.221924 0.476074,1.856689 0.476075,0.626831 1.38855,0.626831 0.888672,0 1.380616,-0.650634 0.491943,-0.650635 0.491943,-1.832886 0,-1.190186 -0.491943,-1.840821 -0.491944,-0.650634 -1.380616,-0.650634 z"
       style="font-style:normal;font-variant:normal;font-weight:bold;font-stretch:normal;font-size:16.25px;font-family:'DejaVu Sans';-inkscape-font-specification:'DejaVu Sans, Bold';font-variant-ligatures:normal;font-variant-caps:normal;font-variant-numeric:normal;font-feature-settings:normal;text-align:center;writing-mode:lr-tb;text-anchor:middle;fill:#ffffff;stroke-width:0.93750006px"
       id="path833" />
    <path
       d="m 93.768463,96.114799 v 0.809327 h -6.641235 q 0.103149,0.999756 0.722046,1.499633 0.618896,0.499878 1.729736,0.499878 0.896606,0 1.832886,-0.26184 0.944214,-0.269776 1.936035,-0.809327 v 2.18994 q -1.007691,0.38086 -2.015381,0.57129 -1.00769,0.19837 -2.015381,0.19837 -2.412109,0 -3.753052,-1.221929 -1.333007,-1.229858 -1.333007,-3.443603 0,-2.174072 1.309204,-3.4198 1.317138,-1.245728 3.618164,-1.245728 2.094726,0 3.348388,1.261597 1.261597,1.261597 1.261597,3.372192 z m -2.919922,-0.944213 q 0,-0.809327 -0.476074,-1.30127 -0.46814,-0.499878 -1.229858,-0.499878 -0.825196,0 -1.340943,0.46814 -0.515747,0.460205 -0.6427,1.333008 z"
       style="font-style:normal;font-variant:normal;font-weight:bold;font-stretch:normal;font-size:16.25px;font-family:'DejaVu Sans';-inkscape-font-specification:'DejaVu Sans, Bold';font-variant-ligatures:normal;font-variant-caps:normal;font-variant-numeric:normal;font-feature-settings:normal;text-align:center;writing-mode:lr-tb;text-anchor:middle;fill:#ffffff;stroke-width:0.93750006px"
       id="path835" />
    <path
       d="m 41.47171,112.28545 v 2.3169 q -0.579223,-0.39673 -1.166382,-0.58716 -0.579223,-0.19043 -1.206054,-0.19043 -1.190186,0 -1.85669,0.69824 -0.658569,0.69031 -0.658569,1.93604 0,1.24573 0.658569,1.94397 0.666504,0.69031 1.85669,0.69031 0.666504,0 1.261596,-0.19837 0.603028,-0.19836 1.11084,-0.58716 v 2.32483 q -0.666504,0.24597 -1.356811,0.36499 -0.682373,0.12696 -1.372681,0.12696 -2.404175,0 -3.760986,-1.22986 -1.356812,-1.2378 -1.356812,-3.43567 0,-2.19788 1.356812,-3.42774 1.356811,-1.23779 3.760986,-1.23779 0.698242,0 1.372681,0.12695 0.682373,0.11902 1.356811,0.36499 z"
       style="font-style:normal;font-variant:normal;font-weight:bold;font-stretch:normal;font-size:16.25px;font-family:'DejaVu Sans';-inkscape-font-specification:'DejaVu Sans, Bold';font-variant-ligatures:normal;font-variant-caps:normal;font-variant-numeric:normal;font-feature-settings:normal;text-align:center;writing-mode:lr-tb;text-anchor:middle;fill:#ffffff;stroke-width:0.93750006px"
       id="path837" />
    <path
       d="m 48.168488,113.82476 q -0.944214,0 -1.444092,0.68237 -0.491944,0.67444 -0.491944,1.95191 0,1.27746 0.491944,1.95984 0.499878,0.67444 1.444092,0.67444 0.928344,0 1.420288,-0.67444 0.491943,-0.68238 0.491943,-1.95984 0,-1.27747 -0.491943,-1.95191 -0.491944,-0.68237 -1.420288,-0.68237 z m 0,-2.03125 q 2.29309,0 3.578491,1.23779 1.293335,1.2378 1.293335,3.42774 0,2.18994 -1.293335,3.42773 -1.285401,1.2378 -3.578491,1.2378 -2.301026,0 -3.602295,-1.2378 -1.293335,-1.23779 -1.293335,-3.42773 0,-2.18994 1.293335,-3.42774 1.301269,-1.23779 3.602295,-1.23779 z"
       style="font-style:normal;font-variant:normal;font-weight:bold;font-stretch:normal;font-size:16.25px;font-family:'DejaVu Sans';-inkscape-font-specification:'DejaVu Sans, Bold';font-variant-ligatures:normal;font-variant-caps:normal;font-variant-numeric:normal;font-feature-settings:normal;text-align:center;writing-mode:lr-tb;text-anchor:middle;fill:#ffffff;stroke-width:0.93750006px"
       id="path839" />
    <path
       d="m 63.347321,113.48357 q 0.53955,-0.82519 1.277465,-1.25366 0.74585,-0.4364 1.634522,-0.4364 1.531372,0 2.332764,0.94421 0.801391,0.94422 0.801391,2.74537 v 5.41137 h -2.856445 v -4.63379 q 0.0079,-0.10315 0.0079,-0.21423 0.0079,-0.11108 0.0079,-0.31738 0,-0.94422 -0.27771,-1.36475 -0.27771,-0.42847 -0.896606,-0.42847 -0.809327,0 -1.253663,0.66651 -0.436401,0.6665 -0.45227,1.9281 v 4.36401 h -2.856445 v -4.63379 q 0,-1.47583 -0.253907,-1.89636 -0.253906,-0.42847 -0.904541,-0.42847 -0.81726,0 -1.261596,0.67444 -0.444336,0.66651 -0.444336,1.91223 v 4.37195 h -2.856446 v -8.88672 h 2.856446 v 1.30127 q 0.523681,-0.75378 1.19812,-1.13464 0.682373,-0.38086 1.499634,-0.38086 0.92041,0 1.626587,0.44434 0.706176,0.44433 1.071167,1.24572 z"
       style="font-style:normal;font-variant:normal;font-weight:bold;font-stretch:normal;font-size:16.25px;font-family:'DejaVu Sans';-inkscape-font-specification:'DejaVu Sans, Bold';font-variant-ligatures:normal;font-variant-caps:normal;font-variant-numeric:normal;font-feature-settings:normal;text-align:center;writing-mode:lr-tb;text-anchor:middle;fill:#ffffff;stroke-width:0.93750006px"
       id="path841" />
    <path
       d="m 72.059479,112.00774 h 2.840576 v 8.88672 h -2.840576 z m 0,-3.45947 h 2.840576 v 2.3169 h -2.840576 z"
       style="font-style:normal;font-variant:normal;font-weight:bold;font-stretch:normal;font-size:16.25px;font-family:'DejaVu Sans';-inkscape-font-specification:'DejaVu Sans, Bold';font-variant-ligatures:normal;font-variant-caps:normal;font-variant-numeric:normal;font-feature-settings:normal;text-align:center;writing-mode:lr-tb;text-anchor:middle;fill:#ffffff;stroke-width:0.93750006px"
       id="path843" />
    <path
       d="m 86.579742,115.48309 v 5.41137 h -2.856445 v -0.88073 -3.26111 q 0,-1.15052 -0.05554,-1.58692 -0.04761,-0.4364 -0.17456,-0.6427 -0.166626,-0.27771 -0.452271,-0.42846 -0.285644,-0.1587 -0.650635,-0.1587 -0.888672,0 -1.396484,0.69031 -0.507813,0.68238 -0.507813,1.89636 v 4.37195 h -2.840576 v -8.88672 h 2.840576 v 1.30127 q 0.642701,-0.77758 1.364747,-1.14257 0.722045,-0.37293 1.594848,-0.37293 1.539307,0 2.332764,0.94421 0.801391,0.94422 0.801391,2.74537 z"
       style="font-style:normal;font-variant:normal;font-weight:bold;font-stretch:normal;font-size:16.25px;font-family:'DejaVu Sans';-inkscape-font-specification:'DejaVu Sans, Bold';font-variant-ligatures:normal;font-variant-caps:normal;font-variant-numeric:normal;font-feature-settings:normal;text-align:center;writing-mode:lr-tb;text-anchor:middle;fill:#ffffff;stroke-width:0.93750006px"
       id="path845" />
    <path
       d="m 95.276031,119.38689 q -0.587158,0.77759 -1.293334,1.14258 -0.706177,0.36499 -1.634522,0.36499 -1.626587,0 -2.689819,-1.27746 -1.063233,-1.2854 -1.063233,-3.26905 0,-1.99157 1.063233,-3.2611 1.063232,-1.27747 2.689819,-1.27747 0.928345,0 1.634522,0.36499 0.706176,0.36499 1.293334,1.15051 v -1.31714 h 2.856446 v 7.99012 q 0,2.14233 -1.356812,3.26904 -1.348877,1.13464 -3.919677,1.13464 -0.83313,0 -1.610718,-0.12695 -0.777588,-0.12695 -1.563111,-0.38879 v -2.21375 q 0.74585,0.42847 1.459961,0.63477 0.714112,0.21423 1.436158,0.21423 1.396484,0 2.047119,-0.61096 0.650634,-0.61096 0.650634,-1.91223 z m -1.872558,-5.53039 q -0.880737,0 -1.372681,0.65063 -0.491943,0.65064 -0.491943,1.84082 0,1.22193 0.476074,1.85669 0.476074,0.62683 1.38855,0.62683 0.888672,0 1.380615,-0.65063 0.491943,-0.65064 0.491943,-1.83289 0,-1.19018 -0.491943,-1.84082 -0.491943,-0.65063 -1.380615,-0.65063 z"
       style="font-style:normal;font-variant:normal;font-weight:bold;font-stretch:normal;font-size:16.25px;font-family:'DejaVu Sans';-inkscape-font-specification:'DejaVu Sans, Bold';font-variant-ligatures:normal;font-variant-caps:normal;font-variant-numeric:normal;font-feature-settings:normal;text-align:center;writing-mode:lr-tb;text-anchor:middle;fill:#ffffff;stroke-width:0.93750006px"
       id="path847" />
    <path
       d="m 52.722931,132.59795 v 2.15821 q -0.912476,-0.38086 -1.761475,-0.57129 -0.848999,-0.19043 -1.602783,-0.19043 -0.809326,0 -1.206055,0.2063 -0.388794,0.19836 -0.388794,0.61889 0,0.34119 0.29358,0.52369 0.301513,0.18249 1.071167,0.26977 l 0.499877,0.0714 q 2.182007,0.27771 2.935792,0.91248 0.753784,0.63476 0.753784,1.99157 0,1.42029 -1.047364,2.1344 -1.047363,0.71412 -3.12622,0.71412 -0.880738,0 -1.824951,-0.14283 -0.93628,-0.13488 -1.928101,-0.41259 v -2.15821 q 0.848999,0.4126 1.737671,0.6189 0.896606,0.2063 1.817016,0.2063 0.83313,0 1.253663,-0.23011 0.420532,-0.2301 0.420532,-0.68237 0,-0.38086 -0.293579,-0.56335 -0.285645,-0.19043 -1.150513,-0.29358 l -0.499878,-0.0635 q -1.896362,-0.23804 -2.658081,-0.88074 -0.761719,-0.6427 -0.761719,-1.9519 0,-1.41235 0.968018,-2.09473 0.968017,-0.68237 2.967529,-0.68237 0.785523,0 1.650391,0.11902 0.864868,0.11902 1.880493,0.37292 z"
       style="font-style:normal;font-variant:normal;font-weight:bold;font-stretch:normal;font-size:16.25px;font-family:'DejaVu Sans';-inkscape-font-specification:'DejaVu Sans, Bold';font-variant-ligatures:normal;font-variant-caps:normal;font-variant-numeric:normal;font-feature-settings:normal;text-align:center;writing-mode:lr-tb;text-anchor:middle;fill:#ffffff;stroke-width:0.93750006px"
       id="path849" />
    <path
       d="m 59.689484,134.13726 q -0.944214,0 -1.444092,0.68237 -0.491944,0.67444 -0.491944,1.95191 0,1.27746 0.491944,1.95984 0.499878,0.67444 1.444092,0.67444 0.928344,0 1.420288,-0.67444 0.491943,-0.68238 0.491943,-1.95984 0,-1.27747 -0.491943,-1.95191 -0.491944,-0.68237 -1.420288,-0.68237 z m 0,-2.03125 q 2.29309,0 3.578491,1.23779 1.293335,1.2378 1.293335,3.42774 0,2.18994 -1.293335,3.42773 -1.285401,1.2378 -3.578491,1.2378 -2.301026,0 -3.602295,-1.2378 -1.293335,-1.23779 -1.293335,-3.42773 0,-2.18994 1.293335,-3.42774 1.301269,-1.23779 3.602295,-1.23779 z"
       style="font-style:normal;font-variant:normal;font-weight:bold;font-stretch:normal;font-size:16.25px;font-family:'DejaVu Sans';-inkscape-font-specification:'DejaVu Sans, Bold';font-variant-ligatures:normal;font-variant-caps:normal;font-variant-numeric:normal;font-feature-settings:normal;text-align:center;writing-mode:lr-tb;text-anchor:middle;fill:#ffffff;stroke-width:0.93750006px"
       id="path851" />
    <path
       d="m 70.861359,134.13726 q -0.944214,0 -1.444092,0.68237 -0.491944,0.67444 -0.491944,1.95191 0,1.27746 0.491944,1.95984 0.499878,0.67444 1.444092,0.67444 0.928344,0 1.420288,-0.67444 0.491943,-0.68238 0.491943,-1.95984 0,-1.27747 -0.491943,-1.95191 -0.491944,-0.68237 -1.420288,-0.68237 z m 0,-2.03125 q 2.29309,0 3.578491,1.23779 1.293335,1.2378 1.293335,3.42774 0,2.18994 -1.293335,3.42773 -1.285401,1.2378 -3.578491,1.2378 -2.301026,0 -3.602295,-1.2378 -1.293335,-1.23779 -1.293335,-3.42773 0,-2.18994 1.293335,-3.42774 1.301269,-1.23779 3.602295,-1.23779 z"
       style="font-style:normal;font-variant:normal;font-weight:bold;font-stretch:normal;font-size:16.25px;font-family:'DejaVu Sans';-inkscape-font-specification:'DejaVu Sans, Bold';font-variant-ligatures:normal;font-variant-caps:normal;font-variant-numeric:normal;font-feature-settings:normal;text-align:center;writing-mode:lr-tb;text-anchor:middle;fill:#ffffff;stroke-width:0.93750006px"
       id="path853" />
    <path
       d="m 86.738434,135.79559 v 5.41137 h -2.856445 v -0.88073 -3.26111 q 0,-1.15052 -0.05554,-1.58692 -0.04761,-0.4364 -0.174561,-0.6427 -0.166626,-0.27771 -0.452271,-0.42846 -0.285644,-0.1587 -0.650634,-0.1587 -0.888672,0 -1.396485,0.69031 -0.507812,0.68238 -0.507812,1.89636 v 4.37195 h -2.840576 v -8.88672 h 2.840576 v 1.30127 q 0.6427,-0.77758 1.364746,-1.14257 0.722046,-0.37293 1.594849,-0.37293 1.539306,0 2.332763,0.94421 0.801392,0.94422 0.801392,2.74537 z"
       style="font-style:normal;font-variant:normal;font-weight:bold;font-stretch:normal;font-size:16.25px;font-family:'DejaVu Sans';-inkscape-font-specification:'DejaVu Sans, Bold';font-variant-ligatures:normal;font-variant-caps:normal;font-variant-numeric:normal;font-feature-settings:normal;text-align:center;writing-mode:lr-tb;text-anchor:middle;fill:#ffffff;stroke-width:0.93750006px"
       id="path855" />
  </g>
</svg>
