<svg aria-hidden="true" style="position: absolute; width: 0; height: 0; overflow: hidden;" version="1.1" xmlns="http://www.w3.org/2000/svg" xmlns:xlink="http://www.w3.org/1999/xlink">
<defs>
<symbol id="cross" viewBox="0 0 24 24">
<title>cross</title>
<path d="M18.984 6.422l-5.578 5.578 5.578 5.578-1.406 1.406-5.578-5.578-5.578 5.578-1.406-1.406 5.578-5.578-5.578-5.578 1.406-1.406 5.578 5.578 5.578-5.578z"></path>
</symbol>
<symbol id="arrow-left" viewBox="0 0 24 24">
<title>arrow-left</title>
<path d="M19 11h-11.6l5.3-5.3c0.4-0.4 0.4-1 0-1.4s-1-0.4-1.4 0l-7 7c-0.1 0.1-0.2 0.2-0.2 0.3-0.1 0.2-0.1 0.5 0 0.8 0.1 0.1 0.1 0.2 0.2 0.3l7 7c0.2 0.2 0.5 0.3 0.7 0.3s0.5-0.1 0.7-0.3c0.4-0.4 0.4-1 0-1.4l-5.3-5.3h11.6c0.6 0 1-0.4 1-1s-0.4-1-1-1z"></path>
</symbol>
<symbol id="check" viewBox="0 0 24 24">
<title>check</title>
<path d="M20.7 5.3c-0.4-0.4-1-0.4-1.4 0l-10.3 10.3-4.3-4.3c-0.4-0.4-1-0.4-1.4 0s-0.4 1 0 1.4l5 5c0.2 0.2 0.4 0.3 0.7 0.3s0.5-0.1 0.7-0.3l11-11c0.4-0.4 0.4-1 0-1.4z"></path>
</symbol>
<symbol id="chevron-down" viewBox="0 0 24 24">
<title>chevron-down</title>
<path d="M18.7 8.3c-0.4-0.4-1-0.4-1.4 0l-5.3 5.3-5.3-5.3c-0.4-0.4-1-0.4-1.4 0s-0.4 1 0 1.4l6 6c0.2 0.2 0.5 0.3 0.7 0.3s0.5-0.1 0.7-0.3l6-6c0.4-0.4 0.4-1 0-1.4z"></path>
</symbol>
<symbol id="chevron-left" viewBox="0 0 24 24">
<title>chevron-left</title>
<path d="M10.4 12l5.3-5.3c0.4-0.4 0.4-1 0-1.4s-1-0.4-1.4 0l-6 6c-0.4 0.4-0.4 1 0 1.4l6 6c0.2 0.2 0.5 0.3 0.7 0.3s0.5-0.1 0.7-0.3c0.4-0.4 0.4-1 0-1.4l-5.3-5.3z"></path>
</symbol>
<symbol id="chevron-right" viewBox="0 0 24 24">
<title>chevron-right</title>
<path d="M15.7 11.3l-6-6c-0.4-0.4-1-0.4-1.4 0s-0.4 1 0 1.4l5.3 5.3-5.3 5.3c-0.4 0.4-0.4 1 0 1.4 0.2 0.2 0.4 0.3 0.7 0.3s0.5-0.1 0.7-0.3l6-6c0.4-0.4 0.4-1 0-1.4z"></path>
</symbol>
<symbol id="chevron-up" viewBox="0 0 24 24">
<title>chevron-up</title>
<path d="M18.7 14.3l-6-6c-0.4-0.4-1-0.4-1.4 0l-6 6c-0.4 0.4-0.4 1 0 1.4s1 0.4 1.4 0l5.3-5.3 5.3 5.3c0.2 0.2 0.5 0.3 0.7 0.3s0.5-0.1 0.7-0.3c0.4-0.4 0.4-1 0-1.4z"></path>
</symbol>
<symbol id="filter" viewBox="0 0 24 24">
<title>filter</title>
<path d="M22.9 2.6c-0.2-0.4-0.5-0.6-0.9-0.6h-20c-0.4 0-0.7 0.2-0.9 0.6-0.2 0.3-0.1 0.7 0.1 1l7.8 9.2v6.2c0 0.4 0.2 0.7 0.6 0.9l4 2c0.1 0.1 0.2 0.1 0.4 0.1s0.4 0 0.5-0.1c0.3-0.2 0.5-0.5 0.5-0.9v-8.2l7.8-9.2c0.2-0.3 0.3-0.7 0.1-1zM13.2 11.8c-0.1 0.2-0.2 0.4-0.2 0.7v6.9l-2-1v-5.9c0-0.2-0.1-0.5-0.2-0.6l-6.6-7.9h15.7l-6.7 7.8z"></path>
</symbol>
<symbol id="menu" viewBox="0 0 24 24">
<title>menu</title>
<path d="M21 11h-18c-0.6 0-1 0.4-1 1s0.4 1 1 1h18c0.6 0 1-0.4 1-1s-0.4-1-1-1z"></path>
<path d="M3 7h18c0.6 0 1-0.4 1-1s-0.4-1-1-1h-18c-0.6 0-1 0.4-1 1s0.4 1 1 1z"></path>
<path d="M21 17h-18c-0.6 0-1 0.4-1 1s0.4 1 1 1h18c0.6 0 1-0.4 1-1s-0.4-1-1-1z"></path>
</symbol>
<symbol id="search" viewBox="0 0 24 24">
<title>search</title>
<path d="M21.7 20.3l-3.7-3.7c1.2-1.5 2-3.5 2-5.6 0-5-4-9-9-9s-9 4-9 9c0 5 4 9 9 9 2.1 0 4.1-0.7 5.6-2l3.7 3.7c0.2 0.2 0.5 0.3 0.7 0.3s0.5-0.1 0.7-0.3c0.4-0.4 0.4-1 0-1.4zM4 11c0-3.9 3.1-7 7-7s7 3.1 7 7c0 1.9-0.8 3.7-2 4.9 0 0 0 0 0 0s0 0 0 0c-1.3 1.3-3 2-4.9 2-4 0.1-7.1-3-7.1-6.9z"></path>
</symbol>
<symbol id="bag" viewBox="0 0 24 24">
<title>bag</title>
<path d="M21.9 5.6c0 0 0-0.1-0.1-0.1 0 0 0-0.1-0.1-0.1l-3-4c-0.1-0.3-0.4-0.4-0.7-0.4h-12c-0.3 0-0.6 0.1-0.8 0.4l-3 4c0 0 0 0.1-0.1 0.1 0 0 0 0.1-0.1 0.1 0 0.2 0 0.3 0 0.4v14c0 1.7 1.3 3 3 3h14c1.7 0 3-1.3 3-3v-14c0-0.1 0-0.2-0.1-0.4zM6.5 3h11l1.5 2h-14l1.5-2zM19 21h-14c-0.6 0-1-0.4-1-1v-13h16v13c0 0.6-0.4 1-1 1z"></path>
<path d="M16 9c-0.6 0-1 0.4-1 1 0 1.7-1.3 3-3 3s-3-1.3-3-3c0-0.6-0.4-1-1-1s-1 0.4-1 1c0 2.8 2.2 5 5 5s5-2.2 5-5c0-0.6-0.4-1-1-1z"></path>
</symbol>
<symbol id="sliders" viewBox="0 0 24 24">
<title>sliders</title>
<path d="M13 4c0 0.6 0.4 1 1 1h7c0.6 0 1-0.4 1-1s-0.4-1-1-1h-7c-0.6 0-1 0.4-1 1z"></path>
<path d="M13 12c0-0.6-0.4-1-1-1h-9c-0.6 0-1 0.4-1 1s0.4 1 1 1h9c0.6 0 1-0.4 1-1z"></path>
<path d="M11 20c0 0.6 0.4 1 1 1h9c0.6 0 1-0.4 1-1s-0.4-1-1-1h-9c-0.6 0-1 0.4-1 1z"></path>
<path d="M11 7v-6c0-0.6-0.4-1-1-1s-1 0.4-1 1v2h-6c-0.6 0-1 0.4-1 1s0.4 1 1 1h6v2c0 0.6 0.4 1 1 1s1-0.4 1-1z"></path>
<path d="M17 15v-2h4c0.6 0 1-0.4 1-1s-0.4-1-1-1h-4v-2c0-0.6-0.4-1-1-1s-1 0.4-1 1v6c0 0.6 0.4 1 1 1s1-0.4 1-1z"></path>
<path d="M9 23v-6c0-0.6-0.4-1-1-1s-1 0.4-1 1v2h-4c-0.6 0-1 0.4-1 1s0.4 1 1 1h4v2c0 0.6 0.4 1 1 1s1-0.4 1-1z"></path>
</symbol>
</defs>
</svg>
