<?xml version="1.0" encoding="UTF-8" standalone="no"?>
<!-- Created with Inkscape (http://www.inkscape.org/) -->

<svg
   xmlns:dc="http://purl.org/dc/elements/1.1/"
   xmlns:cc="http://creativecommons.org/ns#"
   xmlns:rdf="http://www.w3.org/1999/02/22-rdf-syntax-ns#"
   xmlns:svg="http://www.w3.org/2000/svg"
   xmlns="http://www.w3.org/2000/svg"
   xmlns:xlink="http://www.w3.org/1999/xlink"
   xmlns:sodipodi="http://sodipodi.sourceforge.net/DTD/sodipodi-0.dtd"
   xmlns:inkscape="http://www.inkscape.org/namespaces/inkscape"
   width="33.866684mm"
   height="33.86665mm"
   viewBox="0 0 33.866684 33.86665"
   version="1.1"
   id="svg4505"
   inkscape:version="0.92.1 r15371"
   sodipodi:docname="icon_solid.svg">
  <defs
     id="defs4499">
    <linearGradient
       inkscape:collect="always"
       id="linearGradient5809">
      <stop
         style="stop-color:#e40c80;stop-opacity:0.97647059"
         offset="0"
         id="stop5805" />
      <stop
         style="stop-color:#5c3878;stop-opacity:0.98823529"
         offset="1"
         id="stop5807" />
    </linearGradient>
    <linearGradient
       inkscape:collect="always"
       xlink:href="#linearGradient5809"
       id="linearGradient5811"
       x1="5123.3569"
       y1="2637.9958"
       x2="1073.3573"
       y2="4373.71"
       gradientUnits="userSpaceOnUse" />
    <linearGradient
       inkscape:collect="always"
       xlink:href="#linearGradient5809"
       id="linearGradient5813"
       gradientUnits="userSpaceOnUse"
       x1="5123.3569"
       y1="2637.9958"
       x2="1073.3573"
       y2="4373.71" />
  </defs>
  <sodipodi:namedview
     id="base"
     pagecolor="#ffffff"
     bordercolor="#666666"
     borderopacity="1.0"
     inkscape:pageopacity="0.0"
     inkscape:pageshadow="2"
     inkscape:zoom="0.35"
     inkscape:cx="-203.07619"
     inkscape:cy="188.03866"
     inkscape:document-units="mm"
     inkscape:current-layer="layer1"
     showgrid="false"
     inkscape:pagecheckerboard="false"
     fit-margin-top="0"
     fit-margin-left="0"
     fit-margin-right="0"
     fit-margin-bottom="0"
     inkscape:window-width="1920"
     inkscape:window-height="1055"
     inkscape:window-x="0"
     inkscape:window-y="25"
     inkscape:window-maximized="1" />
  <metadata
     id="metadata4502">
    <rdf:RDF>
      <cc:Work
         rdf:about="">
        <dc:format>image/svg+xml</dc:format>
        <dc:type
           rdf:resource="http://purl.org/dc/dcmitype/StillImage" />
        <dc:title></dc:title>
      </cc:Work>
    </rdf:RDF>
  </metadata>
  <g
     inkscape:label="Layer 1"
     inkscape:groupmode="layer"
     id="layer1"
     transform="translate(-28.40617,-171.90013)">
    <g
       style="fill:url(#linearGradient5811);fill-opacity:1;stroke:none"
       transform="matrix(0.00794806,0,0,-0.00795684,20.45811,213.74515)"
       id="g4">
      <path
         inkscape:connector-curvature="0"
         d="m 1520,5237 c -127,-39 -215,-91 -311,-187 -98,-98 -157,-199 -189,-326 -19,-75 -20,-118 -20,-1595 0,-1089 3,-1533 11,-1571 28,-129 99,-257 197,-352 109,-106 199,-156 352,-195 52,-13 3097,-10 3163,4 20,4 40,11 43,16 3,5 13,9 23,9 22,0 134,57 160,82 11,10 23,18 25,18 14,0 136,117 136,130 0,4 11,19 24,34 40,48 82,138 105,226 l 22,85 -3,1545 -3,1545 -28,75 c -38,102 -80,171 -157,253 -89,95 -184,157 -315,204 -47,17 -135,18 -1605,20 l -1555,2 z m 2481,-697 c 21,-12 25,-50 7,-68 -9,-9 -185,-12 -730,-12 h -718 l -2,-1401 c -3,-1298 -4,-1403 -20,-1412 -12,-8 -24,-8 -42,1 l -26,12 v 1429 c 0,1286 2,1431 16,1445 14,14 96,16 755,16 491,0 747,-3 760,-10 z m 13,-582 c 8,-13 8,-23 0,-35 -10,-17 -44,-18 -448,-21 l -436,-2 v -240 -240 h 303 c 222,0 306,-3 315,-12 17,-17 15,-44 -4,-62 -13,-14 -59,-16 -349,-16 -334,0 -334,0 -349,22 -14,19 -16,66 -16,306 0,177 4,291 10,303 11,19 24,19 487,17 441,-3 477,-4 487,-20 z M 3748,2848 c 15,-15 15,-51 0,-66 -9,-9 -93,-12 -315,-12 h -303 v -549 c 0,-486 -2,-551 -16,-565 -22,-22 -50,-20 -68,6 -14,20 -16,92 -16,588 0,496 2,568 16,588 15,22 15,22 353,22 249,0 340,-3 349,-12 z"
         id="path2"
         style="fill:url(#linearGradient5813);fill-opacity:1" />
    </g>
  </g>
</svg>
