<?xml version="1.0" encoding="UTF-8" standalone="no"?>
<svg
   xmlns:dc="http://purl.org/dc/elements/1.1/"
   xmlns:cc="http://creativecommons.org/ns#"
   xmlns:rdf="http://www.w3.org/1999/02/22-rdf-syntax-ns#"
   xmlns:svg="http://www.w3.org/2000/svg"
   xmlns="http://www.w3.org/2000/svg"
   xmlns:xlink="http://www.w3.org/1999/xlink"
   xmlns:sodipodi="http://sodipodi.sourceforge.net/DTD/sodipodi-0.dtd"
   xmlns:inkscape="http://www.inkscape.org/namespaces/inkscape"
   version="1.0"
   width="409.59991pt"
   height="57.982594pt"
   viewBox="0 0 409.59992 57.982594"
   preserveAspectRatio="xMidYMid meet"
   id="svg2"
   inkscape:version="0.91 r13725"
   sodipodi:docname="logo.svg"
   inkscape:export-filename="logo.png"
   inkscape:export-xdpi="300"
   inkscape:export-ydpi="300">
  <metadata
     id="metadata64">
    <rdf:RDF>
      <cc:Work
         rdf:about="">
        <dc:format>image/svg+xml</dc:format>
        <dc:type
           rdf:resource="http://purl.org/dc/dcmitype/StillImage" />
        <dc:title></dc:title>
      </cc:Work>
    </rdf:RDF>
  </metadata>
  <defs
     id="defs62">
    <linearGradient
       inkscape:collect="always"
       id="linearGradient4207">
      <stop
         style="stop-color:#e40c80;stop-opacity:0.97647059"
         offset="0"
         id="stop4209" />
      <stop
         style="stop-color:#5c3878;stop-opacity:0.98823529"
         offset="1"
         id="stop4211" />
    </linearGradient>
    <linearGradient
       inkscape:collect="always"
       xlink:href="#linearGradient4207"
       id="linearGradient4213"
       x1="120.90579"
       y1="4355.1587"
       x2="24768.754"
       y2="874.46838"
       gradientUnits="userSpaceOnUse" />
    <linearGradient
       inkscape:collect="always"
       xlink:href="#linearGradient4207"
       id="linearGradient4215"
       gradientUnits="userSpaceOnUse"
       x1="120.90579"
       y1="4355.1587"
       x2="24768.754"
       y2="874.46838" />
    <linearGradient
       inkscape:collect="always"
       xlink:href="#linearGradient4207"
       id="linearGradient4217"
       gradientUnits="userSpaceOnUse"
       x1="120.90579"
       y1="4355.1587"
       x2="24768.754"
       y2="874.46838" />
    <linearGradient
       inkscape:collect="always"
       xlink:href="#linearGradient4207"
       id="linearGradient4219"
       gradientUnits="userSpaceOnUse"
       x1="120.90579"
       y1="4355.1587"
       x2="24768.754"
       y2="874.46838" />
    <linearGradient
       inkscape:collect="always"
       xlink:href="#linearGradient4207"
       id="linearGradient4221"
       gradientUnits="userSpaceOnUse"
       x1="120.90579"
       y1="4355.1587"
       x2="24768.754"
       y2="874.46838" />
    <linearGradient
       inkscape:collect="always"
       xlink:href="#linearGradient4207"
       id="linearGradient4223"
       gradientUnits="userSpaceOnUse"
       x1="120.90579"
       y1="4355.1587"
       x2="24768.754"
       y2="874.46838" />
    <linearGradient
       inkscape:collect="always"
       xlink:href="#linearGradient4207"
       id="linearGradient4225"
       gradientUnits="userSpaceOnUse"
       x1="120.90579"
       y1="4355.1587"
       x2="24768.754"
       y2="874.46838" />
    <linearGradient
       inkscape:collect="always"
       xlink:href="#linearGradient4207"
       id="linearGradient4227"
       gradientUnits="userSpaceOnUse"
       x1="120.90579"
       y1="4355.1587"
       x2="24768.754"
       y2="874.46838" />
    <linearGradient
       inkscape:collect="always"
       xlink:href="#linearGradient4207"
       id="linearGradient4229"
       gradientUnits="userSpaceOnUse"
       x1="120.90579"
       y1="4355.1587"
       x2="24768.754"
       y2="874.46838" />
    <linearGradient
       inkscape:collect="always"
       xlink:href="#linearGradient4207"
       id="linearGradient4231"
       gradientUnits="userSpaceOnUse"
       x1="120.90579"
       y1="4355.1587"
       x2="24768.754"
       y2="874.46838" />
    <linearGradient
       inkscape:collect="always"
       xlink:href="#linearGradient4207"
       id="linearGradient4233"
       gradientUnits="userSpaceOnUse"
       x1="120.90579"
       y1="4355.1587"
       x2="24768.754"
       y2="874.46838" />
    <linearGradient
       inkscape:collect="always"
       xlink:href="#linearGradient4207"
       id="linearGradient4235"
       gradientUnits="userSpaceOnUse"
       x1="120.90579"
       y1="4355.1587"
       x2="24768.754"
       y2="874.46838" />
    <linearGradient
       inkscape:collect="always"
       xlink:href="#linearGradient4207"
       id="linearGradient4237"
       gradientUnits="userSpaceOnUse"
       x1="120.90579"
       y1="4355.1587"
       x2="24768.754"
       y2="874.46838" />
    <linearGradient
       inkscape:collect="always"
       xlink:href="#linearGradient4207"
       id="linearGradient4239"
       gradientUnits="userSpaceOnUse"
       x1="120.90579"
       y1="4355.1587"
       x2="24768.754"
       y2="874.46838" />
    <linearGradient
       inkscape:collect="always"
       xlink:href="#linearGradient4207"
       id="linearGradient4241"
       gradientUnits="userSpaceOnUse"
       x1="120.90579"
       y1="4355.1587"
       x2="24768.754"
       y2="874.46838" />
    <linearGradient
       inkscape:collect="always"
       xlink:href="#linearGradient4207"
       id="linearGradient4243"
       gradientUnits="userSpaceOnUse"
       x1="120.90579"
       y1="4355.1587"
       x2="24768.754"
       y2="874.46838" />
    <linearGradient
       inkscape:collect="always"
       xlink:href="#linearGradient4207"
       id="linearGradient4245"
       gradientUnits="userSpaceOnUse"
       x1="120.90579"
       y1="4355.1587"
       x2="24768.754"
       y2="874.46838" />
    <linearGradient
       inkscape:collect="always"
       xlink:href="#linearGradient4207"
       id="linearGradient4247"
       gradientUnits="userSpaceOnUse"
       x1="120.90579"
       y1="4355.1587"
       x2="24768.754"
       y2="874.46838" />
    <linearGradient
       inkscape:collect="always"
       xlink:href="#linearGradient4207"
       id="linearGradient4249"
       gradientUnits="userSpaceOnUse"
       x1="120.90579"
       y1="4355.1587"
       x2="24768.754"
       y2="874.46838" />
    <linearGradient
       inkscape:collect="always"
       xlink:href="#linearGradient4207"
       id="linearGradient4251"
       gradientUnits="userSpaceOnUse"
       x1="120.90579"
       y1="4355.1587"
       x2="24768.754"
       y2="874.46838" />
    <linearGradient
       inkscape:collect="always"
       xlink:href="#linearGradient4207"
       id="linearGradient4253"
       gradientUnits="userSpaceOnUse"
       x1="120.90579"
       y1="4355.1587"
       x2="24768.754"
       y2="874.46838" />
    <linearGradient
       inkscape:collect="always"
       xlink:href="#linearGradient4207"
       id="linearGradient4255"
       gradientUnits="userSpaceOnUse"
       x1="120.90579"
       y1="4355.1587"
       x2="24768.754"
       y2="874.46838" />
    <linearGradient
       inkscape:collect="always"
       xlink:href="#linearGradient4207"
       id="linearGradient4257"
       gradientUnits="userSpaceOnUse"
       x1="120.90579"
       y1="4355.1587"
       x2="24768.754"
       y2="874.46838" />
    <linearGradient
       inkscape:collect="always"
       xlink:href="#linearGradient4207"
       id="linearGradient4259"
       gradientUnits="userSpaceOnUse"
       x1="120.90579"
       y1="4355.1587"
       x2="24768.754"
       y2="874.46838" />
    <linearGradient
       inkscape:collect="always"
       xlink:href="#linearGradient4207"
       id="linearGradient4261"
       gradientUnits="userSpaceOnUse"
       x1="120.90579"
       y1="4355.1587"
       x2="24768.754"
       y2="874.46838" />
    <linearGradient
       inkscape:collect="always"
       xlink:href="#linearGradient4207"
       id="linearGradient4263"
       gradientUnits="userSpaceOnUse"
       x1="120.90579"
       y1="4355.1587"
       x2="24768.754"
       y2="874.46838" />
    <linearGradient
       inkscape:collect="always"
       xlink:href="#linearGradient4207"
       id="linearGradient4265"
       gradientUnits="userSpaceOnUse"
       x1="120.90579"
       y1="4355.1587"
       x2="24768.754"
       y2="874.46838" />
    <linearGradient
       inkscape:collect="always"
       xlink:href="#linearGradient4207"
       id="linearGradient4267"
       gradientUnits="userSpaceOnUse"
       x1="120.90579"
       y1="4355.1587"
       x2="24768.754"
       y2="874.46838" />
  </defs>
  <sodipodi:namedview
     pagecolor="#ffffff"
     bordercolor="#666666"
     borderopacity="1"
     objecttolerance="10"
     gridtolerance="10"
     guidetolerance="10"
     inkscape:pageopacity="0"
     inkscape:pageshadow="2"
     inkscape:window-width="1920"
     inkscape:window-height="1080"
     id="namedview60"
     showgrid="false"
     fit-margin-top="0"
     fit-margin-left="0"
     fit-margin-right="0"
     fit-margin-bottom="0"
     inkscape:zoom="1.7650052"
     inkscape:cx="255.99995"
     inkscape:cy="36.239121"
     inkscape:window-x="1920"
     inkscape:window-y="0"
     inkscape:window-maximized="1"
     inkscape:current-layer="svg2" />
  <g
     transform="matrix(0.01661808,0,0,-0.01661808,-1.6607741,72.444477)"
     id="g4"
     style="fill:url(#linearGradient4213);fill-opacity:1;stroke:none">
    <path
       d="m 14937,4343 c -18,-21 -1357,-3303 -1357,-3327 0,-8 11,-23 25,-32 22,-15 27,-15 48,-1 16,11 178,398 652,1558 346,849 636,1561 645,1581 8,21 17,38 20,38 3,0 296,-711 650,-1581 484,-1186 651,-1585 668,-1596 20,-14 25,-14 48,2 20,13 25,23 22,43 -7,42 -1337,3294 -1355,3314 -20,23 -45,23 -66,1 z"
       id="path6"
       style="fill:url(#linearGradient4215);fill-opacity:1"
       inkscape:connector-curvature="0" />
    <path
       d="m 6190,4339 c -500,-64 -931,-321 -1192,-711 -302,-449 -379,-1072 -202,-1623 38,-118 154,-347 231,-455 264,-368 691,-610 1183,-670 108,-13 341,-13 450,0 192,23 422,95 602,187 390,200 709,561 844,957 30,87 30,102 -1,122 -43,28 -60,12 -101,-94 -94,-247 -227,-448 -408,-620 -403,-382 -962,-536 -1531,-421 -339,68 -653,247 -867,494 -322,370 -457,892 -368,1420 114,669 575,1149 1235,1285 341,70 698,40 1010,-85 422,-170 763,-518 925,-944 20,-52 43,-99 51,-104 9,-6 28,-7 42,-3 43,10 44,46 7,145 -224,593 -761,1019 -1405,1116 -108,16 -393,19 -505,4 z"
       id="path8"
       style="fill:url(#linearGradient4217);fill-opacity:1"
       inkscape:connector-curvature="0" />
    <path
       d="m 23855,4309 c -768,-72 -1330,-598 -1466,-1374 -44,-254 -27,-572 45,-820 144,-497 481,-879 931,-1055 217,-85 422,-121 680,-121 193,0 331,17 487,61 180,50 226,77 214,125 -8,31 -48,43 -90,26 -192,-75 -324,-101 -551,-108 -607,-18 -1087,215 -1385,672 -302,465 -341,1135 -95,1650 239,500 713,808 1299,844 241,15 467,-14 664,-84 53,-19 105,-35 114,-35 10,0 25,11 34,25 29,45 3,66 -138,113 -249,82 -472,106 -743,81 z"
       id="path10"
       style="fill:url(#linearGradient4219);fill-opacity:1"
       inkscape:connector-curvature="0" />
    <path
       d="m 17445,4299 c -370,-32 -667,-212 -829,-502 -46,-82 -102,-252 -117,-355 -17,-120 -7,-337 20,-430 41,-139 117,-267 222,-371 152,-150 322,-247 692,-396 92,-37 191,-82 219,-99 104,-62 154,-170 128,-276 -10,-42 -24,-65 -64,-105 -71,-73 -136,-96 -283,-103 -233,-10 -519,70 -764,214 -83,48 -100,52 -123,28 -33,-33 -20,-60 52,-107 145,-96 317,-167 504,-208 120,-26 372,-37 460,-19 132,25 244,105 295,208 24,49 28,69 28,142 0,72 -4,94 -28,145 -56,118 -138,173 -442,295 -430,172 -623,317 -744,557 -68,136 -97,339 -72,502 27,173 113,358 225,487 101,116 273,219 441,266 70,19 106,22 285,22 232,1 318,-12 563,-84 160,-47 174,-48 189,-14 23,51 -7,68 -232,130 -229,64 -446,89 -625,73 z"
       id="path12"
       style="fill:url(#linearGradient4221);fill-opacity:1"
       inkscape:connector-curvature="0" />
    <path
       d="m 140,4279 c -13,-6 -28,-15 -32,-22 -12,-19 -10,-3285 2,-3308 7,-13 21,-19 45,-19 24,0 38,6 45,19 7,13 10,538 10,1625 l 0,1606 813,0 c 884,0 862,-1 862,55 0,56 24,55 -885,54 -524,0 -844,-4 -860,-10 z"
       id="path14"
       style="fill:url(#linearGradient4223);fill-opacity:1"
       inkscape:connector-curvature="0" />
    <path
       d="m 2227,4272 c -16,-17 -17,-132 -17,-1665 0,-1634 0,-1647 20,-1667 24,-24 29,-24 58,-4 l 22,15 0,1615 0,1615 703,-4 c 789,-3 739,1 912,-82 247,-118 419,-323 497,-592 20,-68 23,-100 23,-253 -1,-165 -3,-180 -29,-260 -128,-385 -422,-620 -819,-655 -66,-6 -81,-11 -93,-30 -8,-12 -11,-30 -8,-40 4,-10 234,-311 511,-669 324,-418 513,-654 529,-661 17,-6 31,-6 42,1 46,29 40,38 -452,674 -462,598 -474,615 -448,622 15,3 64,16 110,27 180,45 331,130 463,261 317,315 399,801 201,1195 -56,112 -97,170 -183,259 -136,143 -286,232 -478,284 l -96,27 -726,3 c -698,3 -726,2 -742,-16 z"
       id="path16"
       style="fill:url(#linearGradient4225);fill-opacity:1"
       inkscape:connector-curvature="0" />
    <path
       d="m 9143,4279 c -31,-11 -38,-44 -16,-78 110,-170 1414,-2027 1431,-2038 20,-14 25,-14 47,1 l 25,16 0,1038 c 0,794 -3,1041 -12,1050 -16,16 -63,15 -77,-1 -8,-10 -12,-279 -13,-952 l -3,-939 -664,948 c -365,520 -671,950 -680,955 -9,5 -26,5 -38,0 z"
       id="path18"
       style="fill:url(#linearGradient4227);fill-opacity:1"
       inkscape:connector-curvature="0" />
    <path
       d="m 21272,4274 -22,-15 0,-1653 c 0,-1271 3,-1655 12,-1664 19,-19 66,-15 78,7 7,13 10,549 10,1660 0,1628 0,1641 -20,1661 -24,24 -29,24 -58,4 z"
       id="path20"
       style="fill:url(#linearGradient4229);fill-opacity:1"
       inkscape:connector-curvature="0" />
    <path
       d="m 21922,4274 -22,-15 0,-1653 c 0,-1271 3,-1655 12,-1664 15,-15 61,-15 76,0 9,9 12,393 12,1664 l 0,1653 -22,15 c -12,9 -25,16 -28,16 -3,0 -16,-7 -28,-16 z"
       id="path22"
       style="fill:url(#linearGradient4231);fill-opacity:1"
       inkscape:connector-curvature="0" />
    <path
       d="m 8530,4261 c -14,-27 -14,-3285 0,-3312 12,-22 59,-26 78,-7 17,17 17,3309 0,3326 -19,19 -66,15 -78,-7 z"
       id="path24"
       style="fill:url(#linearGradient4233);fill-opacity:1"
       inkscape:connector-curvature="0" />
    <path
       d="m 11192,4268 c -17,-17 -17,-3309 0,-3326 15,-15 61,-15 76,0 17,17 17,3309 0,3326 -7,7 -24,12 -38,12 -14,0 -31,-5 -38,-12 z"
       id="path26"
       style="fill:url(#linearGradient4235);fill-opacity:1"
       inkscape:connector-curvature="0" />
    <path
       d="m 11536,4264 c -22,-22 -20,-50 6,-68 20,-14 146,-16 1155,-16 668,0 1142,4 1156,9 32,13 41,39 22,67 l -15,24 -1155,0 c -1035,0 -1155,-2 -1169,-16 z"
       id="path28"
       style="fill:url(#linearGradient4237);fill-opacity:1"
       inkscape:connector-curvature="0" />
    <path
       d="m 18616,4264 c -23,-22 -20,-51 7,-69 21,-14 154,-15 1176,-13 1128,3 1153,3 1167,22 18,25 18,41 -2,60 -14,14 -134,16 -1174,16 -1040,0 -1160,-2 -1174,-16 z"
       id="path30"
       style="fill:url(#linearGradient4239);fill-opacity:1"
       inkscape:connector-curvature="0" />
    <path
       d="m 6302,3670 c -227,-32 -430,-135 -598,-304 -171,-172 -222,-296 -122,-296 23,0 34,11 74,73 57,87 167,204 249,262 184,131 423,192 644,165 568,-69 946,-623 811,-1188 -75,-313 -312,-577 -608,-678 -118,-40 -199,-54 -317,-54 -303,0 -606,165 -770,418 -46,72 -75,95 -105,84 -45,-16 -39,-60 19,-145 146,-214 363,-367 616,-433 87,-23 120,-27 250,-27 129,0 163,4 247,26 406,107 705,428 783,841 21,107 20,301 0,402 -88,428 -402,750 -820,840 -86,19 -268,26 -353,14 z"
       id="path32"
       style="fill:url(#linearGradient4241);fill-opacity:1"
       inkscape:connector-curvature="0" />
    <path
       d="m 23855,3645 c -491,-92 -805,-490 -805,-1020 0,-440 226,-808 587,-954 284,-116 653,-104 930,30 66,31 84,45 89,66 16,63 -30,77 -115,33 -262,-132 -607,-146 -872,-35 -314,132 -519,471 -519,860 0,450 259,803 665,906 77,20 114,23 255,23 145,-1 177,-4 265,-28 55,-14 139,-45 187,-68 77,-36 91,-40 114,-30 21,10 25,18 22,45 -3,30 -10,35 -98,80 -145,73 -259,98 -460,103 -118,2 -188,-1 -245,-11 z"
       id="path34"
       style="fill:url(#linearGradient4243);fill-opacity:1"
       inkscape:connector-curvature="0" />
    <path
       d="m 17489,3640 c -199,-19 -342,-163 -343,-345 0,-107 25,-168 98,-240 73,-72 125,-100 356,-195 431,-176 644,-339 769,-587 58,-117 76,-201 75,-363 -1,-172 -20,-255 -89,-395 -155,-316 -443,-488 -855,-511 -268,-15 -621,60 -899,192 -101,48 -132,50 -151,14 -20,-38 -3,-56 99,-103 493,-229 1061,-264 1437,-88 117,55 189,104 276,189 189,183 288,432 288,721 0,260 -80,453 -264,637 -147,147 -336,259 -663,395 -265,110 -305,136 -349,224 -22,47 -26,65 -22,124 4,79 34,132 96,174 132,86 375,76 690,-29 73,-24 139,-44 147,-44 8,0 22,11 30,24 22,33 7,61 -43,82 -221,94 -488,142 -683,124 z"
       id="path36"
       style="fill:url(#linearGradient4245);fill-opacity:1"
       inkscape:connector-curvature="0" />
    <path
       d="m 769,3613 c -11,-13 -14,-83 -14,-360 0,-330 1,-345 19,-359 16,-11 88,-14 402,-14 414,0 414,0 414,54 0,45 -6,46 -354,46 -182,0 -341,3 -353,6 l -23,6 0,269 0,269 499,0 c 441,0 501,2 515,16 19,18 21,55 4,72 -9,9 -146,12 -554,12 -492,0 -543,-2 -555,-17 z"
       id="path38"
       style="fill:url(#linearGradient4247);fill-opacity:1"
       inkscape:connector-curvature="0" />
    <path
       d="m 2876,3615 c -20,-20 -20,-35 -2,-61 14,-18 32,-19 358,-24 330,-5 345,-6 384,-27 203,-109 203,-385 0,-491 -47,-24 -62,-27 -193,-30 -122,-3 -144,-6 -158,-22 -22,-24 -11,-58 22,-71 32,-12 182,-11 262,1 110,18 217,89 274,181 31,52 50,139 45,215 -9,137 -89,252 -218,313 l -55,26 -351,3 c -313,3 -353,1 -368,-13 z"
       id="path40"
       style="fill:url(#linearGradient4249);fill-opacity:1"
       inkscape:connector-curvature="0" />
    <path
       d="m 11532,3618 c -16,-16 -15,-50 1,-71 11,-15 50,-17 402,-19 l 390,-3 5,-1285 c 3,-707 9,-1291 13,-1297 10,-16 59,-17 75,-1 17,17 17,2659 0,2676 -17,17 -869,17 -886,0 z"
       id="path42"
       style="fill:url(#linearGradient4251);fill-opacity:1"
       inkscape:connector-curvature="0" />
    <path
       d="m 12986,3608 c -14,-20 -16,-162 -16,-1323 0,-715 3,-1310 6,-1323 7,-26 49,-40 73,-25 14,9 16,134 21,1299 l 5,1289 390,2 c 384,3 390,3 408,24 21,26 22,43 1,63 -14,14 -68,16 -444,16 l -429,0 -15,-22 z"
       id="path44"
       style="fill:url(#linearGradient4253);fill-opacity:1"
       inkscape:connector-curvature="0" />
    <path
       d="m 18612,3618 c -16,-16 -15,-50 1,-71 11,-15 50,-17 402,-19 l 390,-3 5,-1285 c 3,-707 9,-1291 13,-1297 10,-16 59,-17 75,-1 17,17 17,2659 0,2676 -17,17 -869,17 -886,0 z"
       id="path46"
       style="fill:url(#linearGradient4255);fill-opacity:1"
       inkscape:connector-curvature="0" />
    <path
       d="m 20076,3608 c -14,-20 -16,-163 -16,-1328 0,-1165 2,-1308 16,-1328 17,-25 56,-29 73,-9 8,10 12,369 13,1298 l 3,1284 392,3 393,2 16,26 c 14,20 15,30 6,49 l -12,25 -434,0 -435,0 -15,-22 z"
       id="path48"
       style="fill:url(#linearGradient4257);fill-opacity:1"
       inkscape:connector-curvature="0" />
    <path
       d="m 9210,3053 c -41,-14 -40,4 -40,-1061 0,-686 3,-1030 10,-1043 12,-22 74,-27 87,-7 4,7 10,436 13,952 l 5,939 654,-942 c 359,-518 664,-949 677,-958 22,-14 26,-14 49,1 32,21 32,51 -2,101 -150,225 -1381,1986 -1400,2003 -25,23 -28,24 -53,15 z"
       id="path50"
       style="fill:url(#linearGradient4259);fill-opacity:1"
       inkscape:connector-curvature="0" />
    <path
       d="m 14936,2604 c -9,-8 -16,-24 -16,-34 0,-10 45,-126 99,-259 55,-133 103,-250 106,-261 6,-20 2,-20 -197,-20 -168,0 -207,-3 -226,-16 -27,-19 -29,-60 -3,-74 12,-6 118,-10 275,-10 218,0 257,2 270,16 9,8 16,23 16,32 0,27 -247,624 -262,633 -20,13 -45,11 -62,-7 z"
       id="path52"
       style="fill:url(#linearGradient4261);fill-opacity:1"
       inkscape:connector-curvature="0" />
    <path
       d="m 769,2313 c -20,-23 -26,-1315 -6,-1353 14,-27 62,-39 81,-20 8,8 12,194 16,648 l 5,637 353,3 353,2 11,25 c 8,19 8,31 0,50 l -12,25 -394,0 c -354,0 -395,-2 -407,-17 z"
       id="path54"
       style="fill:url(#linearGradient4263);fill-opacity:1"
       inkscape:connector-curvature="0" />
    <path
       d="m 2882,2144 -22,-15 0,-585 c 0,-571 0,-584 20,-604 24,-24 29,-24 58,-4 l 22,15 0,482 c 0,265 4,488 8,494 5,8 139,-163 385,-492 351,-471 378,-505 406,-505 29,0 51,22 51,49 0,18 -866,1167 -885,1174 -21,9 -17,10 -43,-9 z"
       id="path56"
       style="fill:url(#linearGradient4265);fill-opacity:1"
       inkscape:connector-curvature="0" />
    <path
       d="m 14433,1362 c -15,-10 -143,-317 -143,-343 0,-23 42,-52 64,-43 20,8 38,42 96,187 l 44,107 474,-2 475,-3 57,-134 c 63,-150 83,-174 125,-147 14,9 25,26 25,37 0,28 -127,331 -143,341 -16,10 -1058,10 -1074,0 z"
       id="path58"
       style="fill:url(#linearGradient4267);fill-opacity:1"
       inkscape:connector-curvature="0" />
  </g>
  <rect
     style="opacity:1;fill:#e40d80;fill-opacity:0.97647059;stroke:none;stroke-width:0.56692916;stroke-linecap:round;stroke-linejoin:miter;stroke-miterlimit:4;stroke-dasharray:none;stroke-dashoffset:0;stroke-opacity:1"
     id="rect4203"
     width="20"
     height="20.000002"
     x="-24"
     y="37.98259" />
  <rect
     style="opacity:1;fill:#5c3878;fill-opacity:0.98823529;stroke:none;stroke-width:0.56692916;stroke-linecap:round;stroke-linejoin:miter;stroke-miterlimit:4;stroke-dasharray:none;stroke-dashoffset:0;stroke-opacity:1"
     id="rect4205"
     width="20"
     height="20"
     x="-24"
     y="5.9825935" />
</svg>
